<?xml version="1.0" encoding="UTF-8" standalone="no"?>
<svg
   xmlns:dc="http://purl.org/dc/elements/1.1/"
   xmlns:cc="http://creativecommons.org/ns#"
   xmlns:rdf="http://www.w3.org/1999/02/22-rdf-syntax-ns#"
   xmlns:svg="http://www.w3.org/2000/svg"
   xmlns="http://www.w3.org/2000/svg"
   xmlns:sodipodi="http://sodipodi.sourceforge.net/DTD/sodipodi-0.dtd"
   xmlns:inkscape="http://www.inkscape.org/namespaces/inkscape"
   width="32px"
   height="32px"
   viewBox="0 0 32 32"
   version="1.1"
   id="svg5015"
   sodipodi:docname="bas-031.svg"
   inkscape:version="0.92.4 (5da689c313, 2019-01-14)">
  <metadata
     id="metadata5021">
    <rdf:RDF>
      <cc:Work
         rdf:about="">
        <dc:format>image/svg+xml</dc:format>
        <dc:type
           rdf:resource="http://purl.org/dc/dcmitype/StillImage" />
        <dc:title>Icons/Base/S/Bas-031</dc:title>
      </cc:Work>
    </rdf:RDF>
  </metadata>
  <defs
     id="defs5019" />
  <sodipodi:namedview
     pagecolor="#ffffff"
     bordercolor="#666666"
     borderopacity="1"
     objecttolerance="10"
     gridtolerance="10"
     guidetolerance="10"
     inkscape:pageopacity="0"
     inkscape:pageshadow="2"
     inkscape:window-width="1858"
     inkscape:window-height="1057"
     id="namedview5017"
     showgrid="false"
     inkscape:zoom="27.035619"
     inkscape:cx="20.898356"
     inkscape:cy="16.376069"
     inkscape:window-x="-8"
     inkscape:window-y="1042"
     inkscape:window-maximized="1"
     inkscape:current-layer="svg5015" />
  <!-- Generator: Sketch 53.2 (72643) - https://sketchapp.com -->
  <title
     id="title5008">Icons/Base/S/Bas-031</title>
  <desc
     id="desc5010">Created with Sketch.</desc>
  <g
     id="Icons/Base/S/Bas-031"
     stroke="none"
     stroke-width="1"
     fill="none"
     fill-rule="evenodd">
    <rect
       id="Area"
       fill-opacity="0.4"
       fill="#ffffff"
       opacity="0"
       x="3"
       y="3"
       width="26"
       height="26" />
    <path
       d="M26.224,4.0002 C27.203,4.0002 28,4.7742 28,5.7302 L28,26.2682 C28,27.2242 27.203,28.0012 26.224,28.0012 L5.77,28.0012 C4.794,28.0012 4,27.2242 4,26.2682 L4,5.7302 C4,4.7742 4.794,4.0002 5.77,4.0002 L26.224,4.0002 Z M24.452,24.4512 L24.452,18.1702 C24.452,15.0852 23.786,12.7142 20.181,12.7142 C18.45,12.7142 17.288,13.6632 16.813,14.5632 L16.765,14.5632 L16.765,12.9982 L13.352,12.9982 L13.352,24.4512 L16.908,24.4512 L16.908,18.7862 C16.908,17.2922 17.19,15.8452 19.043,15.8452 C20.87,15.8452 20.892,17.5532 20.892,18.8812 L20.892,24.4512 L24.452,24.4512 Z M9.339,11.4322 C10.477,11.4322 11.402,10.5082 11.402,9.3682 C11.402,8.2282 10.477,7.3042 9.339,7.3042 C8.195,7.3042 7.273,8.2282 7.273,9.3682 C7.273,10.5082 8.195,11.4322 9.339,11.4322 Z M7.556,24.4512 L11.119,24.4512 L11.119,12.9982 L7.556,12.9982 L7.556,24.4512 Z"
       id="Bas-031-S"
       fill="#ffffff"
       fill-rule="nonzero" />
  </g>
</svg>
