<?xml version="1.0" encoding="UTF-8" standalone="no"?>
<svg
   xmlns:dc="http://purl.org/dc/elements/1.1/"
   xmlns:cc="http://creativecommons.org/ns#"
   xmlns:rdf="http://www.w3.org/1999/02/22-rdf-syntax-ns#"
   xmlns:svg="http://www.w3.org/2000/svg"
   xmlns="http://www.w3.org/2000/svg"
   xmlns:sodipodi="http://sodipodi.sourceforge.net/DTD/sodipodi-0.dtd"
   xmlns:inkscape="http://www.inkscape.org/namespaces/inkscape"
   width="32px"
   height="32px"
   viewBox="0 0 32 32"
   version="1.1"
   id="svg4970"
   sodipodi:docname="bas-030.svg"
   inkscape:version="0.92.4 (5da689c313, 2019-01-14)">
  <metadata
     id="metadata4976">
    <rdf:RDF>
      <cc:Work
         rdf:about="">
        <dc:format>image/svg+xml</dc:format>
        <dc:type
           rdf:resource="http://purl.org/dc/dcmitype/StillImage" />
        <dc:title>Icons/Base/S/Bas-030</dc:title>
      </cc:Work>
    </rdf:RDF>
  </metadata>
  <defs
     id="defs4974" />
  <sodipodi:namedview
     pagecolor="#ffffff"
     bordercolor="#666666"
     borderopacity="1"
     objecttolerance="10"
     gridtolerance="10"
     guidetolerance="10"
     inkscape:pageopacity="0"
     inkscape:pageshadow="2"
     inkscape:window-width="1858"
     inkscape:window-height="1057"
     id="namedview4972"
     showgrid="false"
     inkscape:zoom="25.933402"
     inkscape:cx="16.338983"
     inkscape:cy="15.728814"
     inkscape:window-x="-8"
     inkscape:window-y="1042"
     inkscape:window-maximized="1"
     inkscape:current-layer="svg4970" />
  <!-- Generator: Sketch 53.2 (72643) - https://sketchapp.com -->
  <title
     id="title4963">Icons/Base/S/Bas-030</title>
  <desc
     id="desc4965">Created with Sketch.</desc>
  <g
     id="Icons/Base/S/Bas-030"
     stroke="none"
     stroke-width="1"
     fill="none"
     fill-rule="evenodd">
    <rect
       id="Area"
       fill-opacity="0.4"
       fill="#ffffff"
       opacity="0"
       x="3"
       y="3"
       width="26"
       height="26" />
    <path
       d="M24.504,7.5044 C26.76,9.7634 28.001,12.7654 28,15.9584 C27.997,22.5474 22.637,27.9084 16.051,27.9084 L16.045,27.9084 C14.045,27.9074 12.08,27.4054 10.335,26.4534 L4,28.1154 L5.695,21.9234 C4.649,20.1104 4.1,18.0554 4.1,15.9494 C4.102,9.3604 9.464,4.0004 16.05,4.0004 C19.247,4.0014 22.247,5.2454 24.504,7.5044 Z M16.051,25.8894 C21.524,25.8894 25.98,21.4344 25.982,15.9574 C25.983,13.3044 24.951,10.8084 23.076,8.9304 C21.201,7.0544 18.707,6.0184 16.055,6.0174 C10.576,6.0174 6.12,10.4734 6.118,15.9494 C6.117,17.8264 6.643,19.6544 7.637,21.2354 L7.873,21.6114 L6.869,25.2764 L10.629,24.2904 L10.991,24.5054 C12.516,25.4104 14.264,25.8884 16.046,25.8894 L16.051,25.8894 Z M21.498,18.4514 C21.797,18.6004 21.996,18.6764 22.07,18.8004 C22.144,18.9244 22.144,19.5224 21.896,20.2204 C21.647,20.9174 20.455,21.5544 19.881,21.6394 C19.366,21.7174 18.716,21.7484 18,21.5214 C17.566,21.3844 17.011,21.2004 16.298,20.8924 C13.303,19.5984 11.347,16.5834 11.197,16.3844 C11.048,16.1844 9.978,14.7644 9.978,13.2954 C9.978,11.8254 10.75,11.1024 11.023,10.8044 C11.297,10.5054 11.621,10.4304 11.819,10.4304 C12.019,10.4304 12.218,10.4324 12.392,10.4404 C12.575,10.4504 12.821,10.3714 13.063,10.9534 C13.312,11.5514 13.91,13.0214 13.984,13.1714 C14.059,13.3204 14.108,13.4944 14.009,13.6934 C13.91,13.8924 13.859,14.0174 13.711,14.1914 C13.561,14.3664 13.396,14.5814 13.263,14.7154 C13.113,14.8634 12.957,15.0254 13.132,15.3244 C13.306,15.6234 13.905,16.6004 14.793,17.3924 C15.934,18.4104 16.895,18.7244 17.193,18.8754 C17.492,19.0244 17.666,18.9994 17.841,18.8004 C18.015,18.6004 18.587,17.9284 18.786,17.6294 C18.985,17.3304 19.185,17.3804 19.458,17.4794 C19.731,17.5794 21.199,18.3024 21.498,18.4514 Z"
       id="Bas-030"
       fill="#ffffff"
       fill-rule="nonzero" />
  </g>
</svg>
