<?xml version="1.0" encoding="UTF-8" standalone="no"?>
<svg
   xmlns:dc="http://purl.org/dc/elements/1.1/"
   xmlns:cc="http://creativecommons.org/ns#"
   xmlns:rdf="http://www.w3.org/1999/02/22-rdf-syntax-ns#"
   xmlns:svg="http://www.w3.org/2000/svg"
   xmlns="http://www.w3.org/2000/svg"
   xmlns:sodipodi="http://sodipodi.sourceforge.net/DTD/sodipodi-0.dtd"
   xmlns:inkscape="http://www.inkscape.org/namespaces/inkscape"
   width="32px"
   height="32px"
   viewBox="0 0 32 32"
   version="1.1"
   id="svg4416"
   sodipodi:docname="bas-016.svg"
   inkscape:version="0.92.4 (5da689c313, 2019-01-14)">
  <metadata
     id="metadata4422">
    <rdf:RDF>
      <cc:Work
         rdf:about="">
        <dc:format>image/svg+xml</dc:format>
        <dc:type
           rdf:resource="http://purl.org/dc/dcmitype/StillImage" />
        <dc:title>Icons/Base/S/Bas-016</dc:title>
      </cc:Work>
    </rdf:RDF>
  </metadata>
  <defs
     id="defs4420" />
  <sodipodi:namedview
     pagecolor="#ffffff"
     bordercolor="#666666"
     borderopacity="1"
     objecttolerance="10"
     gridtolerance="10"
     guidetolerance="10"
     inkscape:pageopacity="0"
     inkscape:pageshadow="2"
     inkscape:window-width="1858"
     inkscape:window-height="1057"
     id="namedview4418"
     showgrid="false"
     inkscape:zoom="7.375"
     inkscape:cx="16"
     inkscape:cy="16"
     inkscape:window-x="-8"
     inkscape:window-y="1042"
     inkscape:window-maximized="1"
     inkscape:current-layer="svg4416" />
  <!-- Generator: Sketch 53.2 (72643) - https://sketchapp.com -->
  <title
     id="title4409">Icons/Base/S/Bas-016</title>
  <desc
     id="desc4411">Created with Sketch.</desc>
  <g
     id="Icons/Base/S/Bas-016"
     stroke="none"
     stroke-width="1"
     fill="none"
     fill-rule="evenodd">
    <rect
       id="Area"
       fill-opacity="0.4"
       fill="#ffffff"
       opacity="0"
       x="3"
       y="3"
       width="26"
       height="26" />
    <path
       d="M26.676,4 L5.324,4 C4.593,4 4,4.593 4,5.324 L4,26.676 C4,27.407 4.593,28 5.324,28 L16.827,28 L16.827,18.719 L13.703,18.719 L13.703,15.086 L16.827,15.086 L16.827,12.413 C16.827,9.313 18.723,7.625 21.487,7.625 C22.418,7.623 23.349,7.67 24.276,7.766 L24.276,11.006 L22.372,11.006 C20.866,11.006 20.572,11.718 20.572,12.769 L20.572,15.082 L24.172,15.082 L23.704,18.715 L20.552,18.715 L20.552,28 L26.676,28 C27.407,28 28,27.407 28,26.676 L28,5.324 C28,4.593 27.407,4 26.676,4"
       id="Bas-016"
       fill="#ffffff"
       fill-rule="nonzero" />
  </g>
</svg>
