<?xml version="1.0" standalone="no"?>
<!DOCTYPE svg PUBLIC "-//W3C//DTD SVG 1.1//EN" "http://www.w3.org/Graphics/SVG/1.1/DTD/svg11.dtd" >
<svg xmlns="http://www.w3.org/2000/svg">
<metadata>Generated by IcoMoon</metadata>
<defs>
<font id="cuf-icons" horiz-adv-x="1024">
<font-face units-per-em="1024" ascent="960" descent="-64" />
<missing-glyph horiz-adv-x="1024" />
<glyph unicode="&#x20;" horiz-adv-x="512" d="" />
<glyph unicode="&#xe001;" glyph-name="bas-001" d="M127.85 760.15c-0.101 0.002-0.22 0.002-0.339 0.002-13.256 0-24.002-10.746-24.002-24.002s10.746-24.002 24.002-24.002c0.119 0 0.238 0.001 0.357 0.003h770.294c0.101-0.002 0.22-0.002 0.339-0.002 13.256 0 24.002 10.746 24.002 24.002s-10.746 24.002-24.002 24.002c-0.119 0-0.238-0.001-0.357-0.003h0.018zM345.85 476.712c-0.101 0.002-0.22 0.002-0.34 0.002-13.256 0-24.002-10.746-24.002-24.002s10.746-24.002 24.002-24.002c0.12 0 0.239 0.001 0.358 0.003h552.357c0.101-0.002 0.22-0.002 0.34-0.002 13.256 0 24.002 10.746 24.002 24.002s-10.746 24.002-24.002 24.002c-0.12 0-0.239-0.001-0.358-0.003h0.018zM127.85 193.338c-0.101 0.002-0.22 0.002-0.339 0.002-13.256 0-24.002-10.746-24.002-24.002s10.746-24.002 24.002-24.002c0.119 0 0.238 0.001 0.357 0.003h770.294c0.101-0.002 0.22-0.002 0.339-0.002 13.256 0 24.002 10.746 24.002 24.002s-10.746 24.002-24.002 24.002c-0.119 0-0.238-0.001-0.357-0.003h-645.107z" />
<glyph unicode="&#xe002;" glyph-name="bas-002" d="M409.6 862.275c-79.9 0-159.799-30.424-220.625-91.25-121.605-121.654-121.605-319.596 0-441.25 121.654-121.605 319.596-121.605 441.25 0 121.652 121.652 121.652 319.598 0 441.25-60.826 60.826-140.725 91.25-220.625 91.25zM409.6 814.525c67.515 0 135.032-25.782 186.687-77.437 103.311-103.311 103.311-270.064 0-373.375-103.309-103.267-270.066-103.267-373.375 0-103.267 103.309-103.267 270.066 0 373.375 51.655 51.655 119.173 77.437 186.688 77.437zM633.35 350.65c-0.017 0-0.037 0-0.058 0-13.256 0-24.002-10.746-24.002-24.002 0-6.766 2.8-12.878 7.304-17.242l256.006-256.006c4.351-4.352 10.362-7.044 17.002-7.044 13.278 0 24.042 10.764 24.042 24.042 0 6.64-2.692 12.651-7.044 17.002l-256 256c-4.364 4.475-10.453 7.25-17.189 7.25-0.021 0-0.043 0-0.064 0h0.003z" />
<glyph unicode="&#xe003;" glyph-name="bas-003" d="M904.125 850c-6.485-0.195-12.294-2.933-16.495-7.245l-770.38-770.38c-4.551-4.375-7.379-10.514-7.379-17.314 0-13.256 10.746-24.002 24.002-24.002 6.8 0 12.939 2.827 17.306 7.371l770.383 770.383c4.478 4.365 7.256 10.455 7.256 17.195 0 13.256-10.746 24.002-24.002 24.002-0.243 0-0.485-0.004-0.726-0.011l0.035 0.001zM134 850c-13.253-0.004-23.996-10.749-23.996-24.002 0-6.735 2.774-12.821 7.241-17.18l770.38-770.38c4.375-4.551 10.514-7.379 17.314-7.379 13.256 0 24.002 10.746 24.002 24.002 0 6.8-2.827 12.939-7.371 17.306l-770.383 770.383c-4.364 4.474-10.451 7.249-17.187 7.25v0z" />
<glyph unicode="&#xe004;" glyph-name="bas-004" d="M303.688 477.438c-13.254-0.003-23.998-10.748-23.998-24.002 0-6.766 2.8-12.878 7.304-17.242l75.818-75.881c4.351-4.352 10.362-7.044 17.002-7.044 13.278 0 24.042 10.764 24.042 24.042 0 6.64-2.692 12.651-7.044 17.002l-75.875 75.813c-4.369 4.512-10.483 7.313-17.25 7.313v0zM379.312 477.375c-6.485-0.195-12.294-2.933-16.495-7.245l-75.817-75.817c-4.357-4.348-7.052-10.36-7.052-17.001 0-13.266 10.754-24.020 24.020-24.020 6.626 0 12.625 2.683 16.97 7.021v0l75.812 75.875c4.478 4.365 7.256 10.455 7.256 17.195 0 13.256-10.746 24.002-24.002 24.002-0.243 0-0.485-0.004-0.726-0.011l0.035 0.001zM494.687 477.31c-20.71 0-37.75-17.143-37.75-37.812v-45.938c0-20.648 17.040-37.813 37.75-37.813h46c20.689 0 37.813 17.165 37.813 37.813v45.938c0 20.669-17.124 37.812-37.813 37.812zM504.938 429.31h25.562v-25.562h-25.562zM674.938 476.875c-20.652 0-37.813-17.007-37.813-37.75v-46c0-20.699 17.286-37.75 37.813-37.75h46c20.527 0 37.812 17.051 37.813 37.75v46c0 20.743-17.161 37.75-37.813 37.75zM685.125 428.875h25.625v-25.5h-25.625zM494.687 320.998c-20.71 0-37.75-17.143-37.75-37.813v-45.938c0-20.648 17.040-37.813 37.75-37.813h46c20.689 0 37.813 17.165 37.813 37.813v45.938c0 20.669-17.124 37.813-37.813 37.813zM504.938 272.998h25.562v-25.563h-25.562zM674.938 320.56c-20.648 0-37.813-17.018-37.813-37.75v-45.938c0-20.71 17.102-37.812 37.813-37.812h46c20.71 0 37.812 17.165 37.813 37.812v45.938c0 20.669-17.165 37.75-37.813 37.75zM685.125 272.56h25.625v-25.5h-25.625zM314.688 320.998c-20.71 0-37.75-17.080-37.75-37.813v-45.938c0-20.71 17.040-37.813 37.75-37.813h46c20.71 0 37.812 17.165 37.812 37.813v45.938c0 20.669-17.102 37.813-37.812 37.813zM324.938 272.998h25.562v-25.563h-25.562zM345.875 770.435c-0.101 0.002-0.22 0.002-0.339 0.002-13.256 0-24.002-10.746-24.002-24.002s10.746-24.002 24.002-24.002c0.119 0 0.238 0.001 0.357 0.003h343.92c0.101-0.002 0.22-0.002 0.339-0.002 13.256 0 24.002 10.746 24.002 24.002s-10.746 24.002-24.002 24.002c-0.119 0-0.238-0.001-0.357-0.003h0.018zM160.688 770.435c-27.648 0-50.438-22.849-50.438-50.5v-608.437c0-27.589 22.881-50.438 50.438-50.438h714.25c27.557 0 50.5 22.816 50.5 50.438v608.437c0 27.683-22.852 50.5-50.5 50.5h-105.813c-0.101 0.002-0.22 0.002-0.339 0.002-13.256 0-24.002-10.746-24.002-24.002s10.746-24.002 24.002-24.002c0.119 0 0.238 0.001 0.357 0.003h105.795c1.448 0 2.5-1.028 2.5-2.5v-608.437c0-1.593-0.842-2.437-2.5-2.437h-714.25c-1.658 0-2.438 0.812-2.438 2.437v608.437c0 1.505 0.989 2.5 2.438 2.5h105.812c0.101-0.002 0.22-0.002 0.339-0.002 13.256 0 24.002 10.746 24.002 24.002s-10.746 24.002-24.002 24.002c-0.119 0-0.238-0.001-0.357-0.003h0.018zM306.188 849.748c-34.877 0-63.688-28.726-63.688-63.625v-79.375c0-34.887 28.789-63.687 63.688-63.687 34.887 0 63.688 28.801 63.688 63.687v79.375c0 34.899-28.822 63.625-63.688 63.625zM306.188 801.748c8.927 0 15.688-6.672 15.688-15.625v-79.375c0-8.906-6.782-15.687-15.688-15.687-8.953 0-15.688 6.782-15.688 15.687v79.375c0 8.953 6.713 15.625 15.688 15.625zM729.5 849.748c-34.877 0-63.75-28.726-63.75-63.625v-79.375c0-34.887 28.851-63.687 63.75-63.687 34.887 0 63.625 28.801 63.625 63.687v79.375c0 34.899-28.76 63.625-63.625 63.625zM729.5 801.748c8.927 0 15.625-6.672 15.625-15.625v-79.375c0-8.906-6.719-15.687-15.625-15.687-8.953 0-15.75 6.782-15.75 15.687v79.375c0 8.953 6.775 15.625 15.75 15.625zM134.25 611.685c-0.101 0.002-0.22 0.002-0.339 0.002-13.256 0-24.002-10.746-24.002-24.002s10.746-24.002 24.002-24.002c0.119 0 0.238 0.001 0.357 0.003h767.17c0.101-0.002 0.22-0.002 0.339-0.002 13.256 0 24.002 10.746 24.002 24.002s-10.746 24.002-24.002 24.002c-0.119 0-0.238-0.001-0.357-0.003h0.018z" />
<glyph unicode="&#xe005;" glyph-name="bas-005" d="M205.5 335.875c-34.956 0-63.75-28.856-63.75-63.813s28.77-63.813 63.75-63.813c34.993 0 63.875 28.856 63.875 63.813s-28.906 63.813-63.875 63.813zM205.5 287.875c9.063 0 15.875-6.801 15.875-15.813s-6.836-15.813-15.875-15.813c-8.988 0-15.75 6.801-15.75 15.813s6.738 15.813 15.75 15.813zM605.687 896.25c-0.206 0.006-0.449 0.010-0.692 0.010-13.256 0-24.002-10.746-24.002-24.002 0-6.491 2.577-12.381 6.763-16.701l-0.006 0.006 73.625-78.187-78.25-73.625c-4.647-4.388-7.539-10.591-7.539-17.469 0-13.259 10.749-24.008 24.008-24.008 6.381 0 12.18 2.489 16.48 6.55l-0.012-0.011 95.688 90.063c4.629 4.385 7.51 10.576 7.51 17.439 0 6.365-2.478 12.152-6.522 16.448l0.011-0.012-90.063 95.688c-4.244 4.64-10.257 7.601-16.963 7.812l-0.037 0.001zM842.938 829.812c-41.079 0-73.125-35.621-73.125-76.875s32.046-76.813 73.125-76.813c41.095 0 73.187 35.558 73.187 76.813s-32.093 76.875-73.187 76.875zM842.938 781.812c13.241 0 25.187-11.761 25.187-28.875s-11.946-28.812-25.187-28.813c-13.193 0-25.125 11.699-25.125 28.813s11.932 28.875 25.125 28.875zM788.938 881.125c-13.094-0.211-23.628-10.875-23.628-23.999 0-0.132 0.001-0.264 0.003-0.395v0.020-154.562c-0.002-0.101-0.002-0.22-0.002-0.339 0-13.256 10.746-24.002 24.002-24.002s24.002 10.746 24.002 24.002c0 0.119-0.001 0.238-0.003 0.357v-0.018 154.562c0.002 0.112 0.003 0.243 0.003 0.376 0 13.256-10.746 24.002-24.002 24.002-0.132 0-0.264-0.001-0.395-0.003h0.020zM202.75 171.75c-41.53 0-74.75-35.172-74.75-76.813s33.22-76.875 74.75-76.875c41.513 0 74.688 35.235 74.688 76.875s-33.174 76.813-74.688 76.813zM202.75 123.75c14.487 0 26.688-12.085 26.688-28.813s-12.201-28.875-26.688-28.875c-14.534 0-26.75 12.147-26.75 28.875s12.216 28.813 26.75 28.813zM256.125 172.25c-13.094-0.211-23.628-10.875-23.628-23.999 0-0.132 0.001-0.264 0.003-0.395v0.020-107.875c-0.002-0.101-0.002-0.22-0.002-0.339 0-13.256 10.746-24.002 24.002-24.002s24.002 10.746 24.002 24.002c0 0.119-0.001 0.238-0.003 0.357v-0.018 107.875c0.002 0.112 0.003 0.243 0.003 0.376 0 13.256-10.746 24.002-24.002 24.002-0.132 0-0.264-0.001-0.395-0.003h0.020zM521.687 800.312c-185.056 0-336.625-151.569-336.625-336.625v-143.812c-0.002-0.101-0.002-0.22-0.002-0.339 0-13.256 10.746-24.002 24.002-24.002s24.002 10.746 24.002 24.002c0 0.119-0.001 0.238-0.003 0.357v-0.018 143.812c0 158.88 129.745 288.625 288.625 288.625h147.688c0.101-0.002 0.22-0.002 0.339-0.002 13.256 0 24.002 10.746 24.002 24.002s-10.746 24.002-24.002 24.002c-0.119 0-0.238-0.001-0.357-0.003h0.018z" />
<glyph unicode="&#xe006;" glyph-name="bas-006" d="M513.187 864c-88.35 0-159.912-66.213-168.062-149.5-7.102-35.945-3.653-78.731-3.939-113.25 0-0.064 0-0.125 0-0.189 0-43.311 20.053-84.353 54.25-110.312l2.375-1.812c-0.365-0.645-2.277-2.051-2.75-2.688-0.195-0.262-0.314-0.491-0.5-0.75-1.81-1.931-3.289-4.149-4.375-6.562-1.453-2.32-3.062-4.938-3.062-4.938l-7.438-11.313-0.189-0.25c-0.282-0.367-0.553-0.742-0.812-1.125-1.488-2.152-16.907-20.578-26.562-26.688-3.981-2.516-10.972-6.79-13.375-8-0.021 0-0.042 0-0.064 0-45.376-22.979-100.592-51.814-145.808-92.624s-80.875-95.701-80.875-165.687v-32.25c0.004-8.827 4.852-16.941 12.625-21.125 205.848-62.766 502.382-70.751 685.5-30.875 62.8 14.779 93.375 30.875 93.375 30.875 7.797 4.168 12.672 12.284 12.687 21.125v32.25c0 69.987-35.658 124.877-80.875 165.687s-100.491 69.643-145.875 92.625c-2.404 1.21-9.457 5.484-13.438 8-9.656 6.11-25.075 24.536-26.562 26.688-0.102 0.147-0.208 0.291-0.314 0.437l-8.062 12.25-0.563 0.938c-0.421 0.707-1.661 2.724-3.625 5.75-1.14 1.756-2.349 3.596-3.813 5.562-0.631 0.848-2.969 2.67-3.625 3.625l1.125 0.875c34.197 25.96 54.25 67.001 54.25 110.312 0.285 64.932 5.677 127.377-23.311 181.375-0.003 0.002-3.738 7.777-4.437 8.125-27.9 48.106-79.072 73.438-140.062 73.438zM513.187 816h3.813c39.619 0 72.748-19.071 94.5-46.375-2.996-1.448-4.555-2.811-8.25-4.125-18.97-6.746-46.001-10.663-80.562 2.688-43.415 16.774-82.67 5.956-112.687-8.875 21.56 33.037 58.47 56.688 103.187 56.688zM482.125 728.938c7.505-0.695 15.249-2.471 23.25-5.562 45.791-17.689 86.203-12.925 113.938-3.062 5.436 1.933 8.196 4.208 12.687 6.375 1.699-7.442 4.869-14.452 4.875-22.312 0-0.042 0-0.083 0-0.125-0.038-0.52-0.061-1.041-0.064-1.562v-101.625c0-28.369-13.445-55.525-35.313-72.125l-17.375-13.187c-0.738-0.502-1.447-1.044-2.125-1.625l-18.125-13.687c-29.015-21.926-72.814-21.951-101.813 0l-16.875 12.812c-0.79 0.7-1.625 1.348-2.5 1.938l-0.25 0.125-18 13.687c-21.844 16.603-35.25 43.711-35.25 72.062l0.75 86.687c3.362 3.648 12.32 14.214 32.125 25.688 11.519 6.673 24.356 12.259 38.313 14.625 6.978 1.183 14.245 1.57 21.75 0.875zM573.687 455.813v-26.5c-13.668-28.988-35.216-83.747-59.125-155.813-26.84 84.646-46.143 128.961-61.125 160.5v21.375c38.471-19.87 81.941-19.828 120.25 0.437zM407.938 418.25c21.494-45.121 73.044-161.936 98.687-315-10.365 0.061-17.015 1.154-26.875 1.375-39.569 73.723-67.492 110.25-77.188 121.5l15.938 63.438c3.251 7.265 2.689 15.67-1.5 22.437-0.021 0.021-0.042 0.042-0.064 0.064-0.182 0.275-0.37 0.546-0.563 0.812-0.259 0.404-0.53 0.8-0.812 1.188-4.512 6.073-11.622 9.663-19.187 9.688l-45.438 7.375zM620.813 417.312l56.375-86.188-45.75-7.438c-6.852-0.102-13.334-3.126-17.813-8.312-0.021-0.042-0.042-0.083-0.064-0.125-0.507-0.56-0.986-1.144-1.437-1.75-0.021-0.042-0.042-0.083-0.064-0.125-0.064-0.083-0.128-0.166-0.189-0.25-4.768-6.841-5.644-15.668-2.313-23.312l16-63.688c-9.218-10.696-35.163-46.018-72.062-112.938-4.451 26.256-10.269 51.368-16.375 76.375 0.064 0.186 0.128 0.374 0.189 0.563 30.23 112.248 67.204 193.127 83.5 227.188zM305.25 349.062l-12.562-19.312-0.188-0.25c-6.294-6.984-7.931-17-4.188-25.625 0.081-0.166 0.165-0.334 0.25-0.5 0.178-0.38 0.365-0.755 0.562-1.125 0.216-0.444 0.445-0.882 0.687-1.313 0.042-0.042 0.083-0.083 0.125-0.125 0.406-0.667 0.844-1.314 1.313-1.938 4.432-5.968 11.38-9.546 18.812-9.688l56.562-9.25-12.375-49.375c-1.832-4.249-2.396-8.937-1.625-13.5 0.128-0.8 0.294-1.592 0.5-2.375 0.147-0.568 0.314-1.131 0.5-1.687 1.211-3.772 3.336-7.186 6.188-9.938 0.447-0.47 32.415-49.562 60.812-95.438-81.229 4.867-149.064 13.109-191.625 23.125-49.796 11.718-62.782 19.319-69 22.375v15.188c0 54.077 25.993 94.857 65 130.062 23.129 20.875 52.326 34.61 80.25 50.687zM722.875 348.998c27.914-16.073 57.129-29.758 80.25-50.625 39.007-35.206 65.062-75.985 65.062-130.062v-15.188c-6.212-3.054-19.264-10.655-69.062-22.375-42.558-10.016-110.391-18.258-191.625-23.125 28.458 45.976 60.624 95.23 61 95.625 2.568 2.53 4.534 5.606 5.75 9 0.211 0.576 0.397 1.16 0.563 1.75 0.064 0.186 0.128 0.374 0.189 0.563 0.067 0.269 0.131 0.54 0.189 0.812 1.16 4.873 0.767 9.987-1.125 14.625l-12.5 49.938 56.5 9.187c7.699 0.15 14.859 3.986 19.25 10.313 0.4 0.567 0.776 1.151 1.125 1.75 0.064 0.083 0.125 0.166 0.189 0.25 0.128 0.227 0.253 0.456 0.375 0.687 0.246 0.492 0.476 0.992 0.687 1.5 0.109 0.227 0.211 0.457 0.314 0.687 0.064 0.186 0.128 0.374 0.189 0.563 0.208 0.555 0.396 1.118 0.563 1.687 2.439 8.065 0.47 16.818-5.188 23.062zM691.375 191.248c-32.456 0.459-32.456-48.459 0-48h50.438c32.456-0.459 32.456 48.459 0 48z" />
<glyph unicode="&#xe007;" glyph-name="bas-007" d="M435.187 856c-34.178 0-62.375-28.197-62.375-62.375v-206.438h-206.438c-34.178 0-62.375-28.197-62.375-62.375v-153.625c0-34.178 28.197-62.375 62.375-62.375h206.438v-206.438c0-34.178 28.197-62.375 62.375-62.375h153.625c34.178 0 62.375 28.197 62.375 62.375v206.438h206.438c34.178 0 62.375 28.197 62.375 62.375v153.625c0 34.178-28.197 62.375-62.375 62.375h-206.438v206.438c0 34.178-28.197 62.375-62.375 62.375zM435.187 808h153.625c8.239 0 14.375-6.136 14.375-14.375v-230.438c0.001-13.254 10.746-23.999 24-24h230.438c8.239 0 14.375-6.136 14.375-14.375v-153.625c0-8.239-6.136-14.375-14.375-14.375h-230.438c-13.254-0.001-23.999-10.746-24-24v0-230.438c0-8.239-6.136-14.375-14.375-14.375h-153.625c-8.239 0-14.375 6.136-14.375 14.375v230.438c-0.001 13.254-10.746 23.999-24 24h-230.438c-8.239 0-14.375 6.136-14.375 14.375v153.625c0 8.239 6.136 14.375 14.375 14.375h230.438c13.254 0.001 23.999 10.746 24 24v0 230.438c0 8.239 6.136 14.375 14.375 14.375z" />
<glyph unicode="&#xe008;" glyph-name="bas-008" d="M279.688 856c-17.571 0-35.797-5.175-51.812-16.25-1.637-1.112-1.064-0.739-1.938-1.375-0.97-0.707-2.317-1.683-4-2.938-3.366-2.51-8.099-6.106-13.687-10.5-11.178-8.789-25.931-20.89-40.812-34.688s-29.876-29.182-41.813-45.375c-11.937-16.193-22.33-33.051-21.625-54.688 4.7-145.729 138.083-299.034 246.313-406.25s263.196-239.289 410.375-243.938c0.121-0.002 0.263-0.003 0.406-0.003s0.285 0.001 0.428 0.004h1.041c21.199 0 37.748 10.274 53.813 22.125s31.384 26.617 45.125 41.25c13.741 14.633 25.805 29.117 34.562 40.062s12.92 16.576 14.625 18.938c-0.021-0.053 0.021 0.029 0.062 0.111l0.063 0.138c27.738 39.306 20.391 88.303-11.813 110.625-15.483 10.769-138.287 91.797-158.562 104.063-0.009 0-0.021 0-0.032 0s-0.023 0-0.034 0h0.002c-11.268 6.79-24.108 9.75-36.938 9.75-16.478 0-33.101-4.589-48.875-12.813-10.943-5.711-35.375-19.608-54.687-30.5-17.379 12.577-47.143 34.817-100.875 88.062-0.022 0.022-0.042 0.042-0.063 0.063l-0.001 0.001c-53.232 52.693-75.693 82.228-88.562 99.625 10.951 19.067 24.799 43.035 30.5 53.75h-0.064c15.139 28.412 19.156 60.744 2.755 86.311-5.468 8.56-28.75 43.656-52.5 79.25-23.758 35.607-45.802 68.625-52.438 77.688-13.956 19.132-36.598 27.5-58.937 27.5zM279.688 808c10.16 0 17.469-4.024 20.188-7.75 0-0.009 0-0.020 0-0.031s0-0.022 0-0.033v0.002c2.26-3.085 27.531-40.452 51.25-76s48.075-72.255 52.062-78.5c0-0.009 0-0.020 0-0.031s0-0.022 0-0.033v0.002c3.668-5.719 4.917-19.781-4.687-37.812-0.009 0-0.021 0-0.032 0s-0.023 0-0.034 0h0.002c-5.806-10.912-27.605-49.053-38.125-67.313-2.025-3.445-3.221-7.588-3.221-12.011 0-5.197 1.652-10.008 4.458-13.937l-0.049 0.073c12.442-17.516 42.926-56.728 103.687-116.875 61.142-60.589 100.439-90.509 118.062-102.75 3.822-2.685 8.571-4.291 13.696-4.291 4.339 0 8.409 1.151 11.922 3.165l-0.117-0.062c18.446 10.433 56.911 32.088 68 37.875 9.813 5.116 19.458 7.375 26.687 7.375 5.542 0 9.571-1.298 12.187-2.875 11.601-7.025 147.725-96.618 156-102.375 0.009 0 0.021 0 0.032 0s0.023 0 0.034 0h-0.002c6.707-4.649 14.863-22.239 0-43.438 1.207 1.672-4.984-6.763-13.125-16.938-8.193-10.239-19.534-23.846-32.062-37.188s-26.34-26.438-38.625-35.5c-12.285-9.062-23.319-12.75-25.313-12.75h-0.314c-117.723 3.718-272.747 125.672-378.124 230.062s-228.397 258.091-232.125 373.688c-0.053 1.616 3.222 12.378 12.25 24.625s22.331 26.129 35.875 38.687c13.544 12.558 27.366 23.911 37.813 32.125 5.223 4.107 9.616 7.46 12.687 9.75 1.536 1.145 2.742 2.027 3.563 2.625s3.132 2.172 0.75 0.562c0.145 0.106 0.226 0.168 0.307 0.23l-0.057-0.042c7.571 5.235 16.484 7.687 24.5 7.687z" />
<glyph unicode="&#xe009;" glyph-name="bas-009" d="M490.311 853.812c-154.077-6.032-290.311-138.996-290.311-298.312 0-113.915 57.333-186.545 118.375-254.625s126.253-134.013 159.25-243.813c6.82-22.851 39.18-22.851 46 0 32.996 109.798 98.201 175.733 159.25 243.813s118.375 140.709 118.375 254.625c0 158.041-134.049 290.069-286.625 298.062-8.328 0.707-16.905 0.174-24.314 0.25zM500.625 808c130.16 0 252.625-117.953 252.625-252.5 0-98.298-46.226-155.765-106.125-222.562-49.618-55.332-107.065-117.125-146.5-205.187-39.433 88.062-96.888 149.855-146.5 205.187-59.892 66.797-106.125 124.263-106.125 222.562 0 134.547 122.495 252.5 252.625 252.5zM540.577 540.5c0-22.091-17.909-40-40-40v0c-22.091 0-40 17.909-40 40v0c0 22.091 17.909 40 40 40v0c22.091 0 40-17.909 40-40v0z" />
<glyph unicode="&#xe010;" glyph-name="bas-010" d="M521.75 840.688c-12.319-1.933-24.19-6.455-34.75-15.188-48.392-40.030-79.668-111.584-101.625-193.25-5.841-0.926-13.232-2.708-22.875-6.438-19.913-7.701-48.691-23.054-89.75-54.25-5.328-4.042-8.856-7.686-12.312-10.625s-6.779-4.602-5.562-4.188c-0.009 0-0.020 0-0.031 0s-0.022 0-0.033 0h0.002c-13.641-4.676-28.11-2.691-80.313-2.438-0.125 0.002-0.273 0.004-0.42 0.004-13.256 0-24.002-10.746-24.002-24.002s10.746-24.002 24.002-24.002c0.082 0 0.164 0 0.245 0.001h-0.012c50.523-0.245 70.458-3.742 96 5 10.125 3.448 16.086 8.662 21.188 13s9.454 8.396 10.25 9c33.361 25.347 52.734 34.737 67.688 41.375-1.16-6.662-4.063-11.515-5.062-18.312-0.19-1.135-0.299-2.443-0.299-3.776 0-13.256 10.746-24.002 24.002-24.002 0.412 0 0.822 0.010 1.229 0.031l-0.057-0.002c0.074-0.001 0.162-0.001 0.25-0.001s0.176 0 0.263 0.001h-0.013c0.533-0.042 1.154-0.066 1.781-0.066s1.248 0.024 1.863 0.071l-0.082-0.005c0.121-0.002 0.263-0.003 0.406-0.003s0.285 0.001 0.428 0.004h103.354c7.608 0 13.687-6.048 13.687-13.687 0-0.019 0-0.041 0-0.063s0-0.044 0-0.066v0.003c-0.058-5.002-2.781-9.325-6.812-11.688-0.456-0.277-0.802-0.504-1.142-0.74l0.080 0.052c-0.392-0.239-0.677-0.425-0.958-0.616l0.083 0.053c-0.288-0.194-0.492-0.338-0.693-0.485l0.068 0.047c-0.479-0.359-0.886-0.686-1.282-1.027l0.032 0.027c-0.143-0.106-0.224-0.168-0.305-0.23l0.056 0.041c-5.198-4.43-8.473-10.984-8.473-18.302 0-5.674 1.968-10.887 5.26-14.996l-0.037 0.047c1.837-2.364 2.875-5.215 2.875-8.375 0-4.871-2.728-8.853-6.5-11.312-7.816-4.065-13.062-12.102-13.062-21.364 0-5.758 2.028-11.043 5.408-15.179l-0.034 0.043c1.887-2.386 2.938-5.23 2.938-8.438 0-4.367-1.973-8.081-5.125-10.625-1.098-0.905-2.080-1.867-2.973-2.906l-0.027-0.032c-0.386-0.43-0.775-0.898-1.146-1.381l-0.042-0.057c-0.135-0.162-0.299-0.365-0.46-0.571l-0.040-0.054c-0.135-0.162-0.299-0.365-0.46-0.571l-0.040-0.054c-0.296-0.446-0.628-0.997-0.937-1.562l-0.063-0.125c-1.992-3.423-3.168-7.533-3.168-11.919 0-3.561 0.776-6.942 2.167-9.981l-0.061 0.15c0.719-1.653 1.125-3.47 1.125-5.375 0-7.655-6.048-13.688-13.688-13.688h-141.813c-0.574 0.067-12.35 1.41-15.438 2.437h-0.062c-12.252 4.219-41.827 25.465-98.625 25.189-0.057 0-0.124 0.001-0.191 0.001-13.256 0-24.002-10.746-24.002-24.002s10.746-24.002 24.002-24.002c0.155 0 0.309 0.001 0.464 0.004h-0.023c45.914 0.224 55.902-13.379 82.875-22.625 0.009 0 0.020 0 0.031 0s0.022 0 0.033 0h-0.002c14.755-5.013 28.75-5 28.75-5 0.186-0.005 0.405-0.008 0.625-0.008s0.439 0.003 0.657 0.009l-0.032-0.001h49.438c22.419-100.262 63.435-183.667 122.938-227.062 21.062-15.359 45.382-14.368 67.812-11s43.102 10.164 59.125 21.438c5.865 4.024 9.821 10.463 10.432 17.851l0.006 0.087c0 0.019 0 0.040 0 0.062s0 0.044 0 0.066v-0.003c1.817 4.233 5.28 10.823 7.562 27 2.874 20.368 2.94 49.431-6.75 85.438-12.032 44.699-24.012 67.97-36.687 82.125-6.338 7.078-13.146 11.792-19.938 14.25-1.632 0.591-3.064 0.671-4.625 1-2.541 0.999-5.483 1.579-8.561 1.579-1.258 0-2.493-0.097-3.698-0.283l0.134 0.017-43.625-6.125c-12.237-1.204-21.719-11.441-21.719-23.894 0-13.256 10.746-24.002 24.002-24.002 1.535 0 3.036 0.144 4.491 0.419l-0.149-0.024 37.813 5.25c0.288-0.272-0.345 0.275 0.125-0.25 4.341-4.848 15.174-21.879 26.125-62.562 8.012-29.772 7.584-51.861 5.563-66.187-1.541-10.923-2.794-12.555-3.625-14.438-7.347-3.934-19.461-9.323-33.125-11.375-15.931-2.392-30.383 0.877-32.438 2.375-42.675 31.123-79.346 101.439-101 188.25h43.125c33.832 0 61.688 27.87 61.688 61.688 0 5.298-1.842 10.054-3.125 15 6.069 9.567 14.375 18.012 14.375 30.062 0 6.217-4.004 10.861-5.75 16.562 9.738 10.935 17 24.008 17 39.687 0 6.246-3.927 10.969-5.688 16.688 6.829 7.681 11.164 16.536 13.5 26.875 2.159 3.532 3.438 7.805 3.438 12.378 0 0.043 0 0.086 0 0.129v-0.007c0 0.090 0.064 0.16 0.064 0.25 0 16.916-6.989 32.364-18.187 43.562-8.542 8.545-21 11.41-33.25 13.812 7.142 8.601 11.047 13.717 15.062 16.5l35.25-4.875c1.112-0.182 2.393-0.287 3.698-0.287 3.098 0 6.059 0.587 8.777 1.656l-0.163-0.056c1.522 0.327 2.912 0.363 4.5 0.938 6.791 2.458 13.6 7.235 19.938 14.312 12.674 14.155 24.654 37.426 36.686 82.125 9.69 36.015 9.624 65.005 6.75 85.375s-9.5 34.063-9.5 34.062c-0.731 1.481-1.521 2.751-2.419 3.935l0.043-0.060c-0.096 0.149-0.137 0.21-0.178 0.271l0.054-0.084c-0.833 1.367-1.72 2.552-2.707 3.646l0.019-0.021c-0.524 0.598-1.524 0.361-2.062 0.938-2.441 1.859-5.326 3.282-8.459 4.089l-0.166 0.036c-15.601 12.88-33.471 22.426-53.875 25.375-12.228 1.767-24.994 2.433-37.312 0.5zM552.187 792.688c15.737-2.275 30.47-10.298 34.313-14.125 0.414-0.783 2.471-4.2 4.313-17.25 2.022-14.329 2.45-36.467-5.563-66.25-10.951-40.683-21.784-57.715-26.125-62.562-0.47-0.525 0.16 0.022-0.125-0.25l-33.75 4.75c-2.416 0.897-5.208 1.415-8.12 1.415-4.294 0-8.324-1.127-11.811-3.102l0.119 0.062c0 0-31.482-21.547-48.563-58.75h-37.375c18.855 96.415 54.519 175.856 98.062 211.875 3.072 2.54 18.401 6.533 34.625 4.188zM684.5 712.375c-12.891-0.464-23.164-11.026-23.164-23.988 0-8.777 4.711-16.453 11.742-20.639l0.11-0.061c72.774-44.349 122.313-127.588 122.313-223.625 0-92.972-46.421-173.932-115.438-219.25-1.867-1.226-3.788-2.389-5.687-3.563-6.886-4.304-11.4-11.844-11.4-20.439 0-13.267 10.755-24.023 24.023-24.023 4.675 0 9.037 1.335 12.728 3.645l-0.101-0.059c2.277 1.406 4.514 2.844 6.75 4.312 82.677 54.287 137.125 150.412 137.125 259.375 0 112.548-58.034 211.436-145.313 264.625-3.63 2.323-8.059 3.704-12.809 3.704-0.309 0-0.616-0.006-0.923-0.017l0.044 0.001zM654.562 622.062c-12.839-0.527-23.047-11.063-23.047-23.983 0-8.78 4.714-16.458 11.749-20.643l0.11-0.061c32.493-19.658 60.687-71.991 60.687-135.188 0-62.392-27.356-114.318-59.312-134.5-7.145-4.246-11.859-11.924-11.859-20.704 0-13.256 10.746-24.002 24.002-24.002 5.033 0 9.704 1.549 13.563 4.197l-0.082-0.053c51.102 32.273 81.687 99.253 81.687 175.062 0 76.81-31.442 144.567-83.813 176.25-3.609 2.287-8.004 3.645-12.715 3.645-0.342 0-0.682-0.007-1.021-0.021l0.048 0.002z" />
<glyph unicode="&#xe011;" glyph-name="bas-011" d="M121.188 490.5c-0.101 0.002-0.22 0.002-0.339 0.002-13.256 0-24.002-10.746-24.002-24.002s10.746-24.002 24.002-24.002c0.119 0 0.238 0.001 0.357 0.003h758.794c0.101-0.002 0.22-0.002 0.339-0.002 13.256 0 24.002 10.746 24.002 24.002s-10.746 24.002-24.002 24.002c-0.119 0-0.238-0.001-0.357-0.003h0.018zM765.25 608.25c-13.253-0.004-23.996-10.749-23.996-24.002 0-6.735 2.774-12.821 7.241-17.18l117.505-117.567c4.345-4.337 10.344-7.020 16.969-7.020 13.266 0 24.020 10.754 24.020 24.020 0 6.641-2.695 12.652-7.050 17v0l-117.5 117.5c-4.364 4.474-10.451 7.249-17.187 7.25v0zM884.5 485.25c-6.485-0.195-12.294-2.933-16.495-7.245l-117.505-117.505c-4.356-4.348-7.051-10.359-7.051-17 0-13.266 10.754-24.020 24.020-24.020 6.625 0 12.624 2.682 16.969 7.020v0l117.5 117.562c4.478 4.365 7.256 10.455 7.256 17.195 0 13.256-10.746 24.002-24.002 24.002-0.243 0-0.485-0.004-0.726-0.011l0.035 0.001z" />
<glyph unicode="&#xe012;" glyph-name="bas-012" d="M902.812 490.5c0.101 0.002 0.22 0.002 0.339 0.002 13.256 0 24.002-10.746 24.002-24.002s-10.746-24.002-24.002-24.002c-0.119 0-0.238 0.001-0.357 0.003h-758.794c-0.101-0.002-0.22-0.002-0.339-0.002-13.256 0-24.002 10.746-24.002 24.002s10.746 24.002 24.002 24.002c0.119 0 0.238-0.001 0.357-0.003h-0.018zM258.75 608.25c13.253-0.004 23.996-10.749 23.996-24.002 0-6.735-2.774-12.821-7.241-17.18l-117.505-117.567c-4.345-4.337-10.344-7.020-16.969-7.020-13.266 0-24.020 10.754-24.020 24.020 0 6.641 2.695 12.652 7.050 17v0l117.5 117.5c4.364 4.474 10.451 7.249 17.187 7.25v0zM139.5 485.25c6.485-0.195 12.294-2.933 16.495-7.245l117.505-117.505c4.356-4.348 7.051-10.359 7.051-17 0-13.266-10.754-24.020-24.020-24.020-6.625 0-12.624 2.682-16.969 7.020v0l-117.5 117.562c-4.478 4.365-7.256 10.455-7.256 17.195 0 13.256 10.746 24.002 24.002 24.002 0.243 0 0.485-0.004 0.726-0.011l-0.035 0.001z" />
<glyph unicode="&#xe013;" glyph-name="bas-013" d="M631.562 448.25c-6.493-0.212-12.302-2.972-16.494-7.306l-0.006-0.007-192-192c-4.551-4.375-7.379-10.514-7.379-17.314 0-13.256 10.746-24.002 24.002-24.002 6.8 0 12.939 2.827 17.306 7.371l192.008 192.008c4.518 4.37 7.322 10.487 7.322 17.26 0 13.256-10.746 24.002-24.002 24.002-0.266 0-0.532-0.004-0.796-0.013l0.038 0.001zM439.75 640.25c-13.254-0.003-23.998-10.748-23.998-24.002 0-6.766 2.8-12.878 7.304-17.241l192.006-192.006c4.375-4.551 10.514-7.379 17.314-7.379 13.256 0 24.002 10.746 24.002 24.002 0 6.8-2.827 12.939-7.371 17.306l-192.008 192.008c-4.369 4.512-10.483 7.312-17.25 7.312 0 0 0 0 0 0v0z" />
<glyph unicode="&#xe014;" glyph-name="bas-014" d="M631.562 207.737c-6.493 0.212-12.302 2.972-16.494 7.306l-0.006 0.007-192 192c-4.551 4.375-7.379 10.514-7.379 17.314 0 13.256 10.746 24.002 24.002 24.002 6.8 0 12.939-2.827 17.306-7.371l192.008-192.008c4.518-4.37 7.322-10.487 7.322-17.26 0-13.256-10.746-24.002-24.002-24.002-0.266 0-0.532 0.004-0.796 0.013l0.039-0.001zM439.75 399.737c-13.254 0.003-23.998 10.748-23.998 24.002 0 6.766 2.8 12.878 7.304 17.241l192.006 192.006c4.375 4.551 10.514 7.379 17.314 7.379 13.256 0 24.002-10.746 24.002-24.002 0-6.8-2.827-12.939-7.371-17.306l-192.008-192.008c-4.369-4.512-10.483-7.312-17.25-7.312v0z" />
<glyph unicode="&#xe015;" glyph-name="bas-015" d="M415.25 704c-0.101 0.002-0.22 0.002-0.339 0.002-13.256 0-24.002-10.746-24.002-24.002s10.746-24.002 24.002-24.002c0.119 0 0.238 0.001 0.357 0.003h345.232c0.101-0.002 0.22-0.002 0.339-0.002 13.256 0 24.002 10.746 24.002 24.002s-10.746 24.002-24.002 24.002c-0.119 0-0.238-0.001-0.357-0.003h0.018zM877.5 350.5c-6.485-0.195-12.294-2.933-16.495-7.245l-117.505-117.505c-4.337-4.345-7.020-10.344-7.020-16.969 0-13.266 10.754-24.020 24.020-24.020 6.641 0 12.652 2.695 17 7.050v0l117.438 117.5c4.478 4.365 7.256 10.455 7.256 17.195 0 13.256-10.746 24.002-24.002 24.002-0.243 0-0.485-0.004-0.726-0.011l0.035 0.001zM637.25 348.5c-13.253-0.004-23.996-10.749-23.996-24.002 0-6.735 2.774-12.821 7.241-17.18l117.505-117.505c4.375-4.551 10.514-7.379 17.314-7.379 13.256 0 24.002 10.746 24.002 24.002 0 6.8-2.827 12.939-7.371 17.306l-117.446 117.508c-4.364 4.475-10.453 7.25-17.189 7.25-0.021 0-0.043 0-0.064 0h0.003zM760.125 703.625c-13.094-0.211-23.628-10.875-23.628-23.999 0-0.132 0.001-0.264 0.003-0.395v0.020-459.5c-0.002-0.101-0.002-0.22-0.002-0.339 0-13.256 10.746-24.002 24.002-24.002s24.002 10.746 24.002 24.002c0 0.119-0.001 0.238-0.003 0.357v-0.018 459.5c0.002 0.112 0.003 0.243 0.003 0.376 0 13.256-10.746 24.002-24.002 24.002-0.132 0-0.264-0.001-0.395-0.003h0.020zM255.25 704c-0.101 0.002-0.22 0.002-0.339 0.002-13.256 0-24.002-10.746-24.002-24.002s10.746-24.002 24.002-24.002c0.119 0 0.238 0.001 0.357 0.003h90.67c0.101-0.002 0.22-0.002 0.339-0.002 13.256 0 24.002 10.746 24.002 24.002s-10.746 24.002-24.002 24.002c-0.119 0-0.238-0.001-0.357-0.003h0.018zM152.688 704c-0.101 0.002-0.22 0.002-0.339 0.002-13.256 0-24.002-10.746-24.002-24.002s10.746-24.002 24.002-24.002c0.119 0 0.238 0.001 0.357 0.003h12.607c0.101-0.002 0.22-0.002 0.339-0.002 13.256 0 24.002 10.746 24.002 24.002s-10.746 24.002-24.002 24.002c-0.119 0-0.238-0.001-0.357-0.003h0.018z" />
<glyph unicode="&#xe016;" glyph-name="bas-016" d="M853.632 832h-683.264c-23.392 0-42.368-18.976-42.368-42.368v-683.264c0-23.392 18.976-42.368 42.368-42.368h368.096v296.992h-99.968v116.256h99.968v85.536c0 99.2 60.672 153.216 149.12 153.216 29.792 0.064 59.584-1.44 89.248-4.512v-103.68h-60.928c-48.192 0-57.6-22.784-57.6-56.416v-74.016h115.2l-14.976-116.256h-100.864v-297.12h195.968c23.392 0 42.368 18.976 42.368 42.368v683.264c0 23.392-18.976 42.368-42.368 42.368z" />
<glyph unicode="&#xe017;" glyph-name="bas-017" d="M773.201 736c85.135 0 154.799-66.908 154.799-148.651v-278.687c0-81.777-69.664-148.662-154.799-148.662h-522.413c-85.135 0-154.787 66.885-154.787 148.662v278.687c0 81.742 69.652 148.651 154.787 148.651h522.413zM416 320l224 127.988-224 128.012v-256z" />
<glyph unicode="&#xe018;" glyph-name="bas-018" d="M640 448c0-70.692-57.308-128-128-128s-128 57.308-128 128c0 70.692 57.308 128 128 128s128-57.308 128-128z" />
<glyph unicode="&#xe019;" glyph-name="bas-019" d="M704 448c0-106.039-85.961-192-192-192s-192 85.961-192 192c0 106.039 85.961 192 192 192s192-85.961 192-192z" />
<glyph unicode="&#xe020;" glyph-name="bas-020" d="M140.375 843.625c-13.254-0.001-23.999-10.746-24-24v0-756.125c0.001-13.254 10.746-23.999 24-24h756.063c13.254 0.001 23.999 10.746 24 24v0 756.125c-0.001 13.254-10.746 23.999-24 24h-756.063zM164.375 795.625h708.063v-189.812c-27.94-9.23-155.32-45.101-355.562 4.437-69.7 17.245-128.42 25.97-177.438 29.25s-88.344 1.123-119.188-3.375c-24.103-3.515-41.598-8.397-55.875-13.25v172.75zM303.688 593c51.253-0.869 117.614-8.512 201.688-29.313 178.015-44.040 311.197-21.741 367.062-7.687v-114.062c-34.246-10.144-188.003-50.262-353.062 3.938-46.031 15.128-93.094 22.705-137.75 25.562-94.466 6.046-176.040-8.777-217.25-18.188v118.375c2.168 1.076 1.072 0.852 5.5 2.625 11.436 4.578 30.062 10.401 57.312 14.375 20.438 2.98 45.748 4.896 76.5 4.375zM319.312 424.062c57.7 1.633 123.183-3.414 185.063-23.75 158.781-52.136 308.368-23.658 368.062-8.25v-99.312c-17.315 4.853-40.62 10.096-72 13.187-34.938 3.442-79.257 4.605-133.938 0.438s-119.776-13.618-196.25-31.313c-0.021-0.021-0.041-0.041-0.062-0.062l-0.001-0.001c-111.979-26.342-192.131-23.983-243.687-15.625-35.948 5.828-52.72 12.447-62.125 16.812v127.625c21.745 5.456 77.487 18.058 154.937 20.25zM740.438 261c20.886-0.175 39.245-1.236 55.25-2.813 46.626-4.593 66.559-11.225 76.75-15.312v-155.375h-708.063v137.875c14.288-4.783 31.697-9.741 54.5-13.438 57.943-9.394 144.681-11.314 262.187 16.312l0.125 0.063c111.393 25.764 196.616 33.213 259.25 32.687z" />
<glyph unicode="&#xe021;" glyph-name="bas-021" d="M346.625 832c-13.254-0.001-23.999-10.746-24-24v0-82.5c-0.002-0.101-0.002-0.22-0.002-0.339 0-13.256 10.746-24.002 24.002-24.002s24.002 10.746 24.002 24.002c0 0.119-0.001 0.238-0.003 0.357v-0.018 58.5h271.562v-58.5c0.001-13.254 10.746-23.999 24-24h106.563v-629.562h-532.75v629.562h23.312c0.101-0.002 0.22-0.002 0.339-0.002 13.256 0 24.002 10.746 24.002 24.002s-10.746 24.002-24.002 24.002c-0.119 0-0.238-0.001-0.357-0.003h-47.294c-13.254-0.001-23.999-10.746-24-24v0-677.562c0.001-13.254 10.746-23.999 24-24h580.75c13.254 0.001 23.999 10.746 24 24v0 677.562c-0.001 13.254-10.746 23.999-24 24h-106.563v58.5c-0.001 13.254-10.746 23.999-24 24v0zM346.438 758.25c-13.121-0.176-23.69-10.854-23.69-24 0-0.132 0.001-0.263 0.003-0.394v0.020-65.688c0.001-13.254 10.746-23.999 24-24h319.25c13.254 0.001 23.999 10.746 24 24v0 60.812c0.002 0.101 0.002 0.22 0.002 0.339 0 13.256-10.746 24.002-24.002 24.002s-24.002-10.746-24.002-24.002c0-0.119 0.001-0.238 0.003-0.357v0.018-36.812h-271.25v41.688c0.002 0.111 0.003 0.243 0.003 0.375 0 13.256-10.746 24.002-24.002 24.002-0.11 0-0.22-0.001-0.33-0.002h0.017zM539 528.375c-0.198 0.006-0.431 0.009-0.665 0.009-11.081 0-20.408-7.509-23.171-17.716l-0.039-0.168-32.125-122.813-15.25 60.188c-2.716 10.498-12.103 18.126-23.272 18.126-8.71 0-16.336-4.639-20.543-11.582l-0.060-0.107-34.5-57.875h-56.688c-0.101 0.002-0.22 0.002-0.339 0.002-13.256 0-24.002-10.746-24.002-24.002s10.746-24.002 24.002-24.002c0.119 0 0.238 0.001 0.357 0.003h70.294c8.694 0.015 16.302 4.65 20.502 11.581l0.060 0.107 11.875 19.875 24-94.5c2.767-10.425 12.119-17.982 23.235-17.982 11.071 0 20.392 7.496 23.163 17.689l0.039 0.168 31.938 122.062 23.312-93.562c2.681-10.547 12.092-18.224 23.297-18.224 8.283 0 15.586 4.195 19.899 10.577l0.054 0.085 26.312 39.187h50.688c0.101-0.002 0.22-0.002 0.339-0.002 13.256 0 24.002 10.746 24.002 24.002s-10.746 24.002-24.002 24.002c-0.119 0-0.238-0.001-0.357-0.003h-63.42c-0.003 0-0.006 0-0.008 0-8.267 0-15.558-4.18-19.875-10.541l-0.054-0.084-3.313-4.938-33.062 132.312c-2.659 10.29-11.722 17.821-22.592 18.124l-0.033 0.001z" />
<glyph unicode="&#xe022;" glyph-name="bas-022" d="M184 832c-13.254-0.001-23.999-10.746-24-24v0-266.875c0-125.668 97.388-229.312 218.5-229.312h9.75c121.168 0 218.563 103.649 218.563 229.312v266.875c-0.001 13.254-10.746 23.999-24 24h-72.938c-0.101 0.002-0.22 0.002-0.339 0.002-13.256 0-24.002-10.746-24.002-24.002s10.746-24.002 24.002-24.002c0.119 0 0.238 0.001 0.357 0.003h48.92v-242.875c0-101.088-76.755-181.312-170.563-181.312h-9.75c-93.736 0-170.5 80.229-170.5 181.312v242.875h50.562c0.101-0.002 0.22-0.002 0.339-0.002 13.256 0 24.002 10.746 24.002 24.002s-10.746 24.002-24.002 24.002c-0.119 0-0.238-0.001-0.357-0.003h0.018zM381.438 358.438c-13.094-0.211-23.627-10.875-23.627-23.999 0-0.11 0.001-0.22 0.002-0.33v0.017-189.75c0-66.971 52.245-123.062 117.75-123.062 65.529 0 117.875 56.082 117.875 123.062v120.312c0.002 0.101 0.002 0.22 0.002 0.339 0 13.256-10.746 24.002-24.002 24.002s-24.002-10.746-24.002-24.002c0-0.119 0.001-0.238 0.003-0.357v0.018-120.312c0-42.395-31.724-75.062-69.875-75.062-38.111 0-69.75 32.658-69.75 75.062v189.75c0.001 0.093 0.002 0.203 0.002 0.313 0 13.256-10.746 24.002-24.002 24.002-0.132 0-0.263-0.001-0.394-0.003h0.020zM663.5 384.125c-65.519 0-117.875-56.019-117.875-123-0.002-0.101-0.002-0.22-0.002-0.339 0-13.256 10.746-24.002 24.002-24.002s24.002 10.746 24.002 24.002c0 0.119-0.001 0.238-0.003 0.357v-0.018c0 42.395 31.714 75 69.875 75 38.121 0 69.75-32.595 69.75-75v-40.312c-0.002-0.101-0.002-0.22-0.002-0.339 0-13.256 10.746-24.002 24.002-24.002s24.002 10.746 24.002 24.002c0 0.119-0.001 0.238-0.003 0.357v-0.018 40.312c0 66.971-52.255 123-117.75 123zM756.687 243.5c-59.578 0-107.125-50.973-107.125-111.687 0-60.739 47.547-111.688 107.125-111.688s107.125 50.949 107.125 111.688c0 60.715-47.547 111.687-107.125 111.687zM756.687 195.5c32.198 0 59.125-27.57 59.125-63.687 0-36.157-26.927-63.688-59.125-63.688s-59.125 27.53-59.125 63.688c0 36.117 26.927 63.687 59.125 63.687z" />
<glyph unicode="&#xe023;" glyph-name="bas-023" d="M338.25 856c-107.272 0-187.454-68.798-218.937-154.75s-15.644-191.167 63.563-263.625l-1.313 1.313 305-326.625c4.392-4.688 10.62-7.608 17.531-7.608s13.139 2.921 17.519 7.595l0.012 0.013 315.625 338.312c70.872 75.489 81.164 177.409 47.438 259.438s-112.663 145.938-215.5 145.938c-66.007 0-122.85-30.966-165.187-75.625-42.811 44.607-99.699 75.625-165.75 75.625zM338.25 808c59.637 0 112.136-28.262 146.875-72.812 4.434-5.648 11.261-9.242 18.928-9.242 7.75 0 14.642 3.673 19.031 9.373l0.042 0.056c33.9 44.349 86.39 72.625 146.062 72.625 83.243 0 143.915-50.008 171.125-116.188s19.769-146.776-38.063-208.375c-0.009 0-0.021 0-0.032 0s-0.023 0-0.034 0h0.002l-298.125-319.562-287.437 307.812c-0.433 0.49-0.861 0.938-1.306 1.369l-0.006 0.006c-64.632 59.126-76.389 142.2-50.936 211.687s86.779 123.25 173.875 123.25z" />
<glyph unicode="&#xe024;" glyph-name="bas-024" d="M617.5 240.687c-20.862 0-38.938-16.953-38.938-38.438v-137.937c-0.002-0.101-0.002-0.22-0.002-0.339 0-13.256 10.746-24.002 24.002-24.002s24.002 10.746 24.002 24.002c0 0.119-0.001 0.238-0.003 0.357v-0.018 128.375h134c0.101-0.002 0.22-0.002 0.339-0.002 13.256 0 24.002 10.746 24.002 24.002s-10.746 24.002-24.002 24.002c-0.119 0-0.238-0.001-0.357-0.003h0.018zM309.625 832c-29.048 0-53.812-23.455-53.812-52.875v-44.562c-0.002-0.101-0.002-0.22-0.002-0.339 0-13.256 10.746-24.002 24.002-24.002s24.002 10.746 24.002 24.002c0 0.119-0.001 0.238-0.003 0.357v-0.018 44.562c0 2.324 2.028 4.875 5.812 4.875h435.125c3.784 0 5.875-2.551 5.875-4.875v-44.562c-0.002-0.101-0.002-0.22-0.002-0.339 0-13.256 10.746-24.002 24.002-24.002s24.002 10.746 24.002 24.002c0 0.119-0.001 0.238-0.003 0.357v-0.018 44.562c0 29.42-24.827 52.875-53.875 52.875zM286.75 436.625c-13.094-0.211-23.627-10.875-23.627-23.999 0-0.11 0.001-0.22 0.002-0.33v0.017-333.562c0-21.484 17.996-38.438 38.875-38.438h304c0.001 0 0.002 0 0.002 0 6.456 0 12.317 2.549 16.631 6.695l-0.008-0.008 155.188 148.75c4.573 4.367 7.421 10.505 7.437 17.309v199.253c0.002 0.101 0.002 0.22 0.002 0.339 0 13.256-10.746 24.002-24.002 24.002s-24.002-10.746-24.002-24.002c0-0.119 0.001-0.238 0.003-0.357v0.018-189l-140.875-135h-285.25v324c0.001 0.093 0.002 0.203 0.002 0.313 0 13.256-10.746 24.002-24.002 24.002-0.132 0-0.263-0.001-0.394-0.003h0.020zM251.188 439c-0.101 0.002-0.22 0.002-0.339 0.002-13.256 0-24.002-10.746-24.002-24.002s10.746-24.002 24.002-24.002c0.119 0 0.238 0.001 0.357 0.003h545.919c0.101-0.002 0.22-0.002 0.339-0.002 13.256 0 24.002 10.746 24.002 24.002s-10.746 24.002-24.002 24.002c-0.119 0-0.238-0.001-0.357-0.003h0.018zM211.688 670.75c-45.479 0-83.688-36.458-83.688-81.75v-216.375c0-45.274 38.193-81.687 83.688-81.687h73.812c0.101-0.002 0.22-0.002 0.339-0.002 13.256 0 24.002 10.746 24.002 24.002s-10.746 24.002-24.002 24.002c-0.119 0-0.238-0.001-0.357-0.003h-73.794c-20.169 0-35.688 15.538-35.688 33.687v216.375c0 18.196 15.503 33.75 35.688 33.75h631c20.185 0 35.688-15.554 35.688-33.75v-216.375c0-18.15-15.518-33.687-35.688-33.687h-81.187c-0.101 0.002-0.22 0.002-0.339 0.002-13.256 0-24.002-10.746-24.002-24.002s10.746-24.002 24.002-24.002c0.119 0 0.238 0.001 0.357 0.003h81.169c45.495 0 83.688 36.413 83.688 81.687v216.375c0 45.292-38.208 81.75-83.688 81.75z" />
<glyph unicode="&#xe025;" glyph-name="bas-025" d="M520.938 848c-216.716 0-392.938-176.219-392.938-392.938 0-216.746 176.194-392.938 392.938-392.938 216.713 0 392.938 176.192 392.938 392.938 0 216.716-176.222 392.938-392.938 392.938zM520.938 800c190.772 0 344.938-154.165 344.938-344.938 0-190.806-154.163-344.938-344.938-344.938-190.809 0-344.938 154.131-344.938 344.938 0 190.77 154.165 344.938 344.938 344.938zM520.562 746.562c-13.094-0.211-23.628-10.875-23.628-23.999 0-0.132 0.001-0.264 0.003-0.395v0.020-267.125c0.015-8.694 4.65-16.302 11.581-20.502l0.107-0.060 190.813-114.438c3.71-2.467 8.269-3.937 13.171-3.937 13.256 0 24.002 10.746 24.002 24.002 0 9.033-4.99 16.9-12.363 20.997l-0.123 0.063-179.187 107.5v253.5c0.002 0.112 0.003 0.243 0.003 0.376 0 13.256-10.746 24.002-24.002 24.002-0.132 0-0.264-0.001-0.395-0.003h0.020z" />
<glyph unicode="&#xe026;" glyph-name="bas-026" d="M544.25 328.438c-0.212 6.493-2.972 12.302-7.306 16.494l-0.007 0.006-192 192c-4.375 4.551-10.514 7.379-17.314 7.379-13.256 0-24.002-10.746-24.002-24.002 0-6.8 2.827-12.939 7.371-17.306l192.008-192.008c4.37-4.518 10.487-7.322 17.26-7.322 13.256 0 24.002 10.746 24.002 24.002 0 0.266-0.004 0.532-0.013 0.796l0.001-0.038zM736.25 520.25c-0.003 13.254-10.748 23.998-24.002 23.998-6.766 0-12.878-2.8-17.241-7.304l-192.006-192.006c-4.551-4.375-7.379-10.514-7.379-17.314 0-13.256 10.746-24.002 24.002-24.002 6.8 0 12.939 2.827 17.306 7.371l192.008 192.008c4.512 4.369 7.312 10.483 7.312 17.25 0 0 0 0 0 0v0z" />
<glyph unicode="&#xe027;" glyph-name="bas-027" d="M544.25 535.562c-0.212-6.493-2.972-12.302-7.306-16.494l-0.007-0.006-192-192c-4.375-4.551-10.514-7.379-17.314-7.379-13.256 0-24.002 10.746-24.002 24.002 0 6.8 2.827 12.939 7.371 17.306l192.008 192.008c4.37 4.518 10.487 7.322 17.26 7.322 13.256 0 24.002-10.746 24.002-24.002 0-0.266-0.004-0.532-0.013-0.796l0.001 0.038zM736.25 343.75c-0.003-13.254-10.748-23.998-24.002-23.998-6.766 0-12.878 2.8-17.241 7.304l-192.006 192.006c-4.551 4.375-7.379 10.514-7.379 17.314 0 13.256 10.746 24.002 24.002 24.002 6.8 0 12.939-2.827 17.306-7.371l192.008-192.008c4.512-4.369 7.312-10.483 7.312-17.25 0 0 0 0 0 0v0z" />
<glyph unicode="&#xe028;" glyph-name="bas-028" d="M514.816 410.368c-6.144 0-11.904 1.536-17.28 4.608s-9.643 7.253-12.8 12.544c-3.157 5.291-4.736 11.093-4.736 17.408 0 6.485 1.579 12.416 4.736 17.792s7.381 9.6 12.672 12.672c5.291 3.072 11.093 4.608 17.408 4.608s12.117-1.536 17.408-4.608c5.291-3.072 9.515-7.296 12.672-12.672s4.736-11.307 4.736-17.792c0-6.315-1.579-12.117-4.736-17.408s-7.381-9.472-12.672-12.544c-5.291-3.072-11.093-4.608-17.408-4.608z" />
<glyph unicode="&#xe029;" glyph-name="bas-029" d="M800.006 831.997c52.992 0 96-42.976 96-96v-576c0-53.024-43.008-96-96-96h-576c-53.024 0-96 42.976-96 96v576c0 53.024 42.976 96 96 96h576zM702.886 545.885c19.232 13.92 35.936 31.264 49.12 50.976-17.664-7.808-36.64-13.088-56.544-15.52 20.32 12.192 35.936 31.52 43.296 54.528-19.040-11.296-40.128-19.52-62.528-23.936-17.984 19.136-43.552 31.104-71.904 31.104-54.368 0-98.464-44.096-98.464-98.464 0-7.712 0.832-15.264 2.528-22.432-81.856 4.096-154.4 43.264-202.976 102.88-8.48-14.528-13.344-31.488-13.344-49.504 0-34.176 17.376-64.32 43.808-81.984-16.16 0.512-31.296 4.96-44.576 12.32-0.032-0.416-0.032-0.8-0.032-1.248 0-47.68 33.952-87.488 79.008-96.544-8.256-2.24-16.992-3.456-25.952-3.456-6.336 0-12.544 0.608-18.528 1.792 12.544-39.136 48.896-67.616 92-68.416-33.696-26.4-76.16-42.144-122.304-42.144-7.936 0-15.808 0.416-23.488 1.376 43.552-27.968 95.328-44.256 150.944-44.256 181.152 0 280.224 150.048 280.224 280.192 0 4.256-0.096 8.512-0.288 12.736z" />
<glyph unicode="&#xe030;" glyph-name="bas-030" d="M784.128 719.859c72.192-72.288 111.904-168.352 111.872-270.528-0.096-210.848-171.616-382.4-382.368-382.4h-0.192c-64 0.032-126.88 16.096-182.72 46.56l-202.72-53.184 54.24 198.144c-33.472 58.016-51.040 123.776-51.040 191.168 0.064 210.848 171.648 382.368 382.4 382.368 102.304-0.032 198.304-39.84 270.528-112.128zM513.632 131.539c175.136 0 317.728 142.56 317.792 317.824 0.032 84.896-32.992 164.768-92.992 224.864-60 60.032-139.808 93.184-224.672 93.216-175.328 0-317.92-142.592-317.984-317.824-0.032-60.064 16.8-118.56 48.608-169.152l7.552-12.032-32.128-117.28 120.32 31.552 11.584-6.88c48.8-28.96 104.736-44.256 161.76-44.288h0.16zM687.936 369.555c9.568-4.768 15.936-7.2 18.304-11.168s2.368-23.104-5.568-45.44c-7.968-22.304-46.112-42.688-64.48-45.408-16.48-2.496-37.28-3.488-60.192 3.776-13.888 4.384-31.648 10.272-54.464 20.128-95.84 41.408-158.432 137.888-163.232 144.256-4.768 6.4-39.008 51.84-39.008 98.848 0 47.040 24.704 70.176 33.44 79.712 8.768 9.568 19.136 11.968 25.472 11.968 6.4 0 12.768-0.064 18.336-0.32 5.856-0.32 13.728 2.208 21.472-16.416 7.968-19.136 27.104-66.176 29.472-70.976 2.4-4.768 3.968-10.336 0.8-16.704s-4.8-10.368-9.536-15.936c-4.8-5.6-10.080-12.48-14.336-16.768-4.8-4.736-9.792-9.92-4.192-19.488 5.568-9.568 24.736-40.832 53.152-66.176 36.512-32.576 67.264-42.624 76.8-47.456 9.568-4.768 15.136-3.968 20.736 2.4 5.568 6.4 23.872 27.904 30.24 37.472s12.768 7.968 21.504 4.8c8.736-3.2 55.712-26.336 65.28-31.104z" />
<glyph unicode="&#xe031;" glyph-name="bas-031" d="M839.168 831.994c31.328 0 56.832-24.768 56.832-55.36v-657.216c0-30.592-25.504-55.456-56.832-55.456h-654.528c-31.232 0-56.64 24.864-56.64 55.456v657.216c0 30.592 25.408 55.36 56.64 55.36h654.528zM782.464 177.562v200.992c0 98.72-21.312 174.592-136.672 174.592-55.392 0-92.576-30.368-107.776-59.168h-1.536v50.080h-109.216v-366.496h113.792v181.28c0 47.808 9.024 94.112 68.32 94.112 58.464 0 59.168-54.656 59.168-97.152v-178.24h113.92zM298.848 594.17c36.416 0 66.016 29.568 66.016 66.048s-29.6 66.048-66.016 66.048c-36.608 0-66.112-29.568-66.112-66.048s29.504-66.048 66.112-66.048zM241.792 177.562h114.016v366.496h-114.016v-366.496z" />
<glyph unicode="&#xe032;" glyph-name="bas-032" d="M645.125 523.5c-6.485-0.195-12.294-2.933-16.495-7.245l-126.38-126.442c-4.337-4.345-7.020-10.344-7.020-16.969 0-13.266 10.754-24.020 24.020-24.020 6.641 0 12.652 2.695 17 7.050v0l126.313 126.438c4.478 4.365 7.256 10.455 7.256 17.195 0 13.256-10.746 24.002-24.002 24.002-0.243 0-0.485-0.004-0.726-0.011l0.035 0.001zM386.688 521.312c-13.253-0.004-23.996-10.749-23.996-24.002 0-6.735 2.774-12.821 7.241-17.18l126.38-126.38c4.375-4.552 10.515-7.379 17.315-7.379 13.256 0 24.002 10.746 24.002 24.002 0 6.8-2.828 12.94-7.372 17.307l-126.32 126.383c-4.364 4.475-10.453 7.25-17.189 7.25-0.021 0-0.043 0-0.064 0h0.003zM516.75 832.375c-13.121-0.176-23.69-10.854-23.69-24 0-0.132 0.001-0.263 0.003-0.394v0.020-425.5c-0.002-0.101-0.002-0.22-0.002-0.339 0-13.256 10.746-24.002 24.002-24.002s24.002 10.746 24.002 24.002c0 0.119-0.001 0.238-0.003 0.357v-0.018 425.5c0.002 0.111 0.003 0.243 0.003 0.375 0 13.256-10.746 24.002-24.002 24.002-0.11 0-0.22-0.001-0.33-0.002h0.017zM199.25 685.625c-21.435 0-39.25-17.815-39.25-39.25v-527.125c0-21.418 17.876-39.25 39.25-39.25h634.063c21.374 0 39.187 17.893 39.187 39.25v527.125c0 21.374-17.752 39.25-39.187 39.25h-175.375c-0.101 0.002-0.22 0.002-0.339 0.002-13.256 0-24.002-10.746-24.002-24.002s10.746-24.002 24.002-24.002c0.119 0 0.238 0.001 0.357 0.003h166.544v-509.625h-616.5v509.625h167.688c0.101-0.002 0.22-0.002 0.339-0.002 13.256 0 24.002 10.746 24.002 24.002s-10.746 24.002-24.002 24.002c-0.119 0-0.238-0.001-0.357-0.003h0.018z" />
<glyph unicode="&#xe033;" glyph-name="bas-033" d="M175.812 424.25c-0.035 0-0.077 0-0.119 0-13.256 0-24.002-10.746-24.002-24.002 0-6.735 2.774-12.822 7.241-17.181l0.005-0.005 205.312-206.75c4.351-4.376 10.376-7.084 17.033-7.084 13.266 0 24.020 10.754 24.020 24.020 0 6.61-2.67 12.597-6.991 16.94l0.001-0.001-205.25 206.75c-4.369 4.512-10.483 7.312-17.25 7.312v0zM879.5 712.25c-6.485-0.195-12.294-2.933-16.495-7.245l-496.005-496.005c-4.352-4.351-7.044-10.362-7.044-17.002 0-13.278 10.764-24.042 24.042-24.042 6.64 0 12.651 2.692 17.002 7.044l496 496c4.519 4.37 7.325 10.488 7.325 17.262 0 13.256-10.746 24.002-24.002 24.002-0.289 0-0.577-0.005-0.864-0.015l0.042 0.001z" />
<glyph unicode="&#xe034;" glyph-name="bas-034" d="M177.312 736c-26.98 0-49.312-22.331-49.312-49.312v-481.375c0-26.984 22.37-49.313 49.312-49.313h684.063c26.945 0 49.312 22.328 49.312 49.313v481.375c0 26.982-22.331 49.312-49.312 49.312zM177.312 688h684.063c0.986 0 1.313-0.326 1.313-1.313v-481.375c0-1.048-0.291-1.313-1.313-1.313h-684.063c-0.961 0-1.312 0.265-1.312 1.313v481.375c0 0.986 0.388 1.312 1.312 1.312zM160 729.625c-13.214-0.055-23.906-10.78-23.906-24.002 0-7.6 3.532-14.375 9.045-18.773l0.048-0.037 343.437-279.437c0.125-0.128 0.247-0.25 0.371-0.371l0.004-0.004c17.779-13.8 42.915-13.782 60.687 0.064 0.164 0.134 0.286 0.237 0.407 0.341l-0.032-0.027 343.437 279.435c5.788 4.429 9.483 11.339 9.483 19.113 0 13.256-10.746 24.002-24.002 24.002-6.061 0-11.596-2.246-15.821-5.951l0.027 0.024-343.062-279.062c-0.449-0.315-1.125-0.35-1.625 0h-0.064l-342.936 279.062c-4.143 3.499-9.543 5.625-15.44 5.625-0.021 0-0.042 0-0.063 0h0.003z" />
<glyph unicode="&#xe035;" glyph-name="bas-035" d="M548.812 73.188c0.002-0.101 0.002-0.22 0.002-0.339 0-13.256-10.746-24.002-24.002-24.002s-24.002 10.746-24.002 24.002c0 0.119 0.001 0.238 0.003 0.357v-0.018 758.812c-0.002 0.101-0.002 0.22-0.002 0.339 0 13.256 10.746 24.002 24.002 24.002s24.002-10.746 24.002-24.002c0-0.119-0.001-0.238-0.003-0.357v0.018zM672.25 717.562c0.001-0.091 0.002-0.198 0.002-0.305 0-13.256-10.746-24.002-24.002-24.002-6.611 0-12.597 2.672-16.938 6.996l0.001-0.001-123.062 119.5c-4.488 4.369-7.272 10.469-7.272 17.219 0 13.267 10.755 24.022 24.022 24.022 6.517 0 12.428-2.595 16.755-6.808l-0.005 0.005 123-119.5c4.552-4.316 7.411-10.378 7.5-17.109v-0.016zM549.25 836.5c-0.195-6.485-2.933-12.294-7.245-16.495l-117.505-117.505c-4.348-4.356-10.359-7.051-17-7.051-13.266 0-24.020 10.754-24.020 24.020 0 6.625 2.682 12.624 7.020 16.969v0l117.562 117.5c4.365 4.478 10.455 7.256 17.195 7.256 13.256 0 24.002-10.746 24.002-24.002 0-0.243-0.004-0.485-0.011-0.726l0.001 0.035z" />
<glyph unicode="&#xe036;" glyph-name="bas-036" d="M191.125 856c-12.846-0.519-23.063-11.058-23.063-23.984 0-0.006 0-0.011 0-0.017v0.001l-0.062-771.313c0-0.004 0-0.009 0-0.014 0-13.256 10.746-24.002 24.002-24.002 4.751 0 9.18 1.38 12.907 3.762l-0.097-0.058 610.688 385.687c6.753 4.324 11.165 11.787 11.165 20.281s-4.412 15.958-11.070 20.224l-0.096 0.058-610.625 385.688c-3.631 2.325-8.061 3.706-12.813 3.706-0.33 0-0.658-0.007-0.984-0.020l0.047 0.001zM216.062 788.375l541.688-342.062-541.75-342.125z" />
<glyph unicode="&#xe037;" glyph-name="bas-037" d="M438.062 578.875c-12.856-0.485-23.098-11.011-23.125-23.935v-0.003l-0.062-205.813c0-0.016 0-0.035 0-0.054 0-13.256 10.746-24.002 24.002-24.002 4.777 0 9.228 1.396 12.968 3.801l-0.095-0.057 162.187 102.938c6.725 4.329 11.116 11.776 11.116 20.25s-4.391 15.921-11.021 20.193l-0.095 0.057-162.188 102.938c-3.63 2.323-8.059 3.704-12.809 3.704-0.309 0-0.616-0.006-0.923-0.017l0.044 0.001zM462.938 511.312l93.375-59.312-93.438-59.25zM184.562 768c-30.997 0-56.562-25.585-56.562-56.562v-518.875c0-30.969 25.565-56.562 56.562-56.562h670.875c31.006 0 56.562 25.565 56.562 56.562v518.875c0 31.006-25.557 56.562-56.562 56.562zM184.562 720h670.875c4.834 0 8.562-3.728 8.562-8.562v-518.875c0-4.779-3.728-8.562-8.562-8.562h-670.875c-4.779 0-8.562 3.755-8.562 8.562v518.875c0 4.863 3.784 8.562 8.562 8.562z" />
<glyph unicode="&#xe038;" glyph-name="bas-038" d="M918.4 16h-800c-12.8 0-25.6 9.6-25.6 25.6v800c3.2 12.8 12.8 22.4 25.6 22.4s25.6-9.6 25.6-25.6v-774.4h774.4c12.8 0 25.6-9.6 25.6-25.6s-12.8-22.4-25.6-22.4zM825.6 121.6h-115.2c-12.8 0-25.6 9.6-25.6 25.6v624c0 12.8 9.6 25.6 25.6 25.6h115.2c12.8 0 25.6-9.6 25.6-25.6v-627.2c-3.2-12.8-12.8-22.4-25.6-22.4zM736 166.4h64v582.4h-64v-582.4zM585.6 121.6h-115.2c-12.8 0-25.6 9.6-25.6 25.6v297.6c0 12.8 9.6 25.6 25.6 25.6h115.2c12.8 0 25.6-9.6 25.6-25.6v-297.6c-3.2-16-12.8-25.6-25.6-25.6zM496 166.4h67.2v249.6h-67.2v-249.6zM348.8 121.6h-115.2c-12.8 0-25.6 9.6-25.6 25.6v438.4c0 12.8 9.6 25.6 25.6 25.6h115.2c12.8 0 25.6-9.6 25.6-25.6v-441.6c-3.2-12.8-12.8-22.4-25.6-22.4zM256 166.4h67.2v393.6h-67.2v-393.6z" />
<glyph unicode="&#xe039;" glyph-name="bas-039" d="M512 831.99c216.352 0 384-158.464 384-372.48s-167.648-372.48-384-372.48c-38.88 0-76.192 5.088-111.2 14.752-6.784 1.856-13.952 1.312-20.448-1.536l-76.192-33.632c-19.936-8.704-42.4 5.408-43.104 27.232l-2.080 68.256c-0.32 8.448-4.096 16.256-10.368 21.888-74.688 66.848-120.608 163.552-120.608 275.52 0 214.016 167.648 372.48 384 372.48zM281.437 350.582c-10.88-17.152 10.272-36.576 26.432-24.288l121.152 91.936c8.192 6.208 19.488 6.304 27.744 0.096l89.696-67.296c26.88-20.16 65.344-13.056 83.296 15.36l112.8 178.976c10.88 17.12-10.272 36.544-26.432 24.256l-121.152-91.936c-8.192-6.208-19.488-6.304-27.712-0.096l-89.728 67.296c-26.88 20.16-65.344 13.056-83.296-15.36l-112.8-178.944z" />
<glyph unicode="&#xe040;" glyph-name="bas-040" d="M528 792c-214.52 0-392-152.353-392-344 0-77.76 31.657-148.275 80.812-205.562-0.476-2.397-0.047-3.868-6.062-14.687-8.34-14.999-24.747-36.968-57.5-61.563-5.824-4.427-9.546-11.359-9.546-19.16 0-11.003 7.404-20.277 17.502-23.112l0.169-0.041c0 0 94.085-24.587 170.187 28.375 19.92-10.479 43.634-20.858 75.562-29.687 37.977-10.502 81.095-18.562 120.875-18.562 214.519 0 392 152.352 392 344s-177.481 344-392 344zM528 744c191.962 0 344-134.186 344-296s-152.038-296-344-296c-33.103 0-73.217 7.16-108.125 16.813-34.28 9.48-63.871 21.958-75.75 29.187-3.854 2.753-8.662 4.402-13.855 4.402-0.403 0-0.803-0.010-1.201-0.030l0.056 0.002c-0.287-0.032-0.458-0.055-0.628-0.079l0.128 0.015c-5.949-0.274-11.29-2.673-15.326-6.45l0.013 0.012c-30.904-25.942-66.765-30.56-96-29.813 11.515 13.017 29.507 27.822 35.375 38.375 11.716 21.072 14.125 38.564 14.125 38.564 0.087 0.769 0.137 1.66 0.137 2.562 0 6.366-2.479 12.154-6.524 16.45l0.011-0.012c-48.151 51.205-76.438 115.684-76.438 186 0 161.814 152.037 296 344 296z" />
<glyph unicode="&#xe041;" glyph-name="bas-041" d="M375.975 154.677c-3.584 0-7.264 0.8-10.688 2.528-11.872 5.952-16.672 20.352-10.752 32.192l266.656 533.344c5.984 11.872 20.352 16.608 32.192 10.752 11.872-5.952 16.672-20.352 10.752-32.192l-266.656-533.344c-4.224-8.448-12.704-13.28-21.504-13.28z" />
<glyph unicode="&#xe042;" glyph-name="bas-042" d="M408 638.875c-13.254-0.001-23.999-10.746-24-24v0-113.625c0.001-13.254 10.746-23.999 24-24h41.25v-327.687c0-28.598 6.128-53.869 23.688-71.625s42.72-23.938 70.875-23.938h127.438c13.254 0.001 23.999 10.746 24 24v0 112.625c-0.001 13.254-10.746 23.999-24 24h-41.313v328.688c0 28.155-6.133 53.306-23.562 71.125s-42.68 24.438-71 24.438zM432 590.875h103.375c21.184 0 31.213-4.403 36.687-10s9.875-16.213 9.875-37.563v-329.5c0-11.934 3.893-24.902 13.125-34.125s22.123-13.062 34.062-13.062h18.125v-64.625h-103.438c-21.349 0-31.405 4.283-36.75 9.687s-9.812 15.945-9.812 37.875v328.5c0 12.156-3.714 25.463-13.312 34.75s-22.428 12.438-33.813 12.438h-18.125zM539.625 840c-48.936 0-89.125-40.189-89.125-89.125s40.203-89.063 89.125-89.063c48.901 0 89.063 40.127 89.063 89.063s-40.147 89.125-89.063 89.125zM539.625 792c22.956 0 41.063-18.125 41.063-41.125s-18.092-41.063-41.063-41.063c-23.014 0-41.125 18.062-41.125 41.063s18.125 41.125 41.125 41.125z" />
<glyph unicode="&#xe043;" glyph-name="bas-043" d="M533.562 251.562c-50.37 0-91.75-41.318-91.75-91.687s41.38-91.688 91.75-91.688c50.37 0 91.688 41.318 91.688 91.688s-41.318 91.687-91.688 91.687zM533.562 203.562c24.446 0 43.688-19.241 43.688-43.687s-19.241-43.688-43.688-43.688c-24.446 0-43.75 19.241-43.75 43.688s19.304 43.687 43.75 43.687zM490.25 832c-43.472 0-78.046-38.161-73.875-81.375l38.187-394.875c3.667-37.843 35.844-67.063 73.875-67.063h10.062c38.012 0 70.21 29.237 73.875 67.063l38.375 394.812c0 0.009 0 0.020 0 0.031s0 0.022 0 0.033v-0.002c4.17 43.248-30.466 81.375-73.938 81.375zM490.25 784h86.562c15.92 0 27.713-12.988 26.188-28.812l-38.438-394.812c-1.327-13.695-12.298-23.688-26.062-23.688h-10.062c-13.745 0-24.8 10.010-26.125 23.688l-38.188 394.875c-1.525 15.794 10.205 28.75 26.125 28.75z" />
<glyph unicode="&#xe044;" glyph-name="bas-044" d="M519.438 857.6c-97.956 0-177.625-80.617-177.625-179.125v-206.125c0-98.508 79.669-179.125 177.625-179.125 97.929 0 177.625 80.611 177.625 179.125v206.125c0 98.514-79.696 179.125-177.625 179.125zM519.438 809.6c71.735 0 129.625-58.311 129.625-131.125v-206.125c0-72.814-57.89-131.125-129.625-131.125-71.772 0-129.625 58.305-129.625 131.125v206.125c0 72.82 57.853 131.125 129.625 131.125zM279.625 563.225c-13.094-0.211-23.628-10.875-23.628-23.999 0-0.132 0.001-0.264 0.003-0.395v0.020-72.75c0-136.924 105.025-246.523 237.438-260.375v-116.125h-146.062c-0.101 0.002-0.22 0.002-0.339 0.002-13.256 0-24.002-10.746-24.002-24.002s10.746-24.002 24.002-24.002c0.119 0 0.238 0.001 0.357 0.003h341.92c0.101-0.002 0.22-0.002 0.339-0.002 13.256 0 24.002 10.746 24.002 24.002s-10.746 24.002-24.002 24.002c-0.119 0-0.238-0.001-0.357-0.003h-147.857v115.313c134.357 11.896 241.375 122.841 241.375 261.187v72.75c0.002 0.101 0.002 0.22 0.002 0.339 0 13.256-10.746 24.002-24.002 24.002s-24.002-10.746-24.002-24.002c0-0.119 0.001-0.238 0.003-0.357v0.018-72.75c0-120.423-96.512-217.687-215.375-217.687-118.898 0-215.438 97.265-215.438 217.687v72.75c0.002 0.112 0.003 0.243 0.003 0.376 0 13.256-10.746 24.002-24.002 24.002-0.132 0-0.264-0.001-0.395-0.003h0.020z" />
<glyph unicode="&#xe045;" glyph-name="bas-045" d="M328 238.687c0-109.536 89.91-198.687 200-198.687 110.073 0 200 89.151 200 198.687v442.688c-0.076 4.857-1.583 9.347-4.116 13.084l0.054-0.084c-10.239 72.612-70.735 129.625-146.375 129.625-82.727 0-150.5-67.112-150.5-149.5v-383.25c0-56.168 46.333-102.062 102.625-102.062s102.625 45.894 102.625 102.062v261.813c0.002 0.101 0.002 0.22 0.002 0.339 0 13.256-10.746 24.002-24.002 24.002s-24.002-10.746-24.002-24.002c0-0.119 0.001-0.238 0.003-0.357v0.018-261.813c0-30.024-24.079-54.062-54.625-54.062s-54.625 24.039-54.625 54.062v383.25c0 56.252 45.514 101.5 102.5 101.5 56.963 0 102.438-45.248 102.438-101.5v-435.813c0-83.401-67.673-150.687-152-150.687-84.35 0-152 67.287-152 150.687v442.688c0.002 0.101 0.002 0.22 0.002 0.339 0 13.256-10.746 24.002-24.002 24.002s-24.002-10.746-24.002-24.002c0-0.119 0.001-0.238 0.003-0.357v0.018z" />
<glyph unicode="&#xe046;" glyph-name="bas-046" d="M512 792c-25.383 0-49.65-5.205-71.687-14.625-0.009 0-0.021 0-0.032 0s-0.023 0-0.034 0h0.002c-22.037-9.43-41.806-23.069-58.436-39.875-16.625-16.8-30.078-36.789-39.375-59-9.275-22.211-14.438-46.662-14.438-72.187 0-25.537 5.164-49.981 14.438-72.188 0.289-0.727 0.541-1.282 0.813-1.826l-0.063 0.139 31-60.438h-113.75c-0.009 0-0.020 0-0.030 0-10.224 0-18.955-6.392-22.414-15.398l-0.055-0.164-132.375-352c-0.969-2.505-1.531-5.405-1.531-8.435 0-13.244 10.727-23.983 23.967-24.002h768.002c13.242 0.019 23.969 10.758 23.969 24.002 0 3.030-0.562 5.93-1.586 8.599l0.055-0.164-132.375 352c-3.515 9.17-12.246 15.563-22.47 15.563-0.011 0-0.021 0-0.032 0h-113.81l31 60.438c0.229 0.414 0.501 0.968 0.752 1.534l0.061 0.153c9.31 22.222 14.438 46.651 14.438 72.188 0 25.525-5.126 49.962-14.438 72.187-9.293 22.202-22.745 42.194-39.375 59s-36.414 30.445-58.437 39.875c-0.009 0-0.021 0-0.032 0s-0.023 0-0.034 0h0.002c-22.048 9.419-46.325 14.625-71.686 14.625zM512 744c18.799 0 36.631-3.811 52.875-10.75 16.224-6.954 30.87-17.052 43.187-29.5 12.33-12.46 22.294-27.282 29.187-43.75 6.901-16.472 10.75-34.587 10.75-53.687 0-19.047-3.831-37.072-10.687-53.5l-125.313-244.188-125.375 244.375c-6.796 16.398-10.625 34.329-10.625 53.313 0 19.101 3.803 37.201 10.687 53.687 6.89 16.459 16.915 31.285 29.25 43.75 12.318 12.448 26.952 22.546 43.187 29.5 16.23 6.937 34.045 10.75 52.875 10.75zM512 696c-57.162 0-104-46.855-104-104 0-57.157 46.843-104 104-104 57.145 0 104 46.838 104 104 0 57.151-46.849 104-104 104zM512 648c31.201 0 56-24.799 56-56 0-31.222-24.793-56-56-56-31.227 0-56 24.773-56 56 0 31.207 24.778 56 56 56zM277 424h121.813l91.812-178.938c4.061-7.828 12.104-13.083 21.375-13.083s17.314 5.256 21.312 12.95l0.063 0.133 91.75 178.938h121.875l114.375-304h-698.75z" />
<glyph unicode="&#xe047;" glyph-name="bas-047" d="M208.562 824c-39.785 0-72.562-32.777-72.562-72.562v-606.875c0-39.785 32.777-72.562 72.562-72.562h606.875c39.785 0 72.562 32.777 72.562 72.562v606.875c0 39.785-32.777 72.562-72.562 72.562zM208.562 776h606.875c13.84 0 24.562-10.722 24.562-24.562v-606.875c0-13.84-10.722-24.562-24.562-24.562h-606.875c-13.84 0-24.562 10.722-24.562 24.562v606.875c0 13.84 10.722 24.562 24.562 24.562zM352 664c-30.65 0-56-25.35-56-56s25.35-56 56-56c21.342 0 36.566 14.187 46 32h306c0.101-0.002 0.22-0.002 0.339-0.002 13.256 0 24.002 10.746 24.002 24.002s-10.746 24.002-24.002 24.002c-0.119 0-0.238-0.001-0.357-0.003h-305.982c-9.434 17.813-24.658 32-46 32zM352 504c-30.65 0-56-25.35-56-56s25.35-56 56-56c21.342 0 36.566 14.187 46 32h306c0.101-0.002 0.22-0.002 0.339-0.002 13.256 0 24.002 10.746 24.002 24.002s-10.746 24.002-24.002 24.002c-0.119 0-0.238-0.001-0.357-0.003h-305.982c-9.434 17.813-24.658 32-46 32zM352 344c-30.65 0-56-25.35-56-56s25.35-56 56-56c21.342 0 36.566 14.187 46 32h306c0.101-0.002 0.22-0.002 0.339-0.002 13.256 0 24.002 10.746 24.002 24.002s-10.746 24.002-24.002 24.002c-0.119 0-0.238-0.001-0.357-0.003h-305.982c-9.434 17.813-24.658 32-46 32z" />
<glyph unicode="&#xe048;" glyph-name="bas-048" d="M511.625 740c-13.094-0.211-23.628-10.875-23.628-23.999 0-0.132 0.001-0.264 0.003-0.395v0.020-247.5h-247.5c-0.101 0.002-0.22 0.002-0.339 0.002-13.256 0-24.002-10.746-24.002-24.002s10.746-24.002 24.002-24.002c0.119 0 0.238 0.001 0.357 0.003h247.482v-247.562c-0.002-0.101-0.002-0.22-0.002-0.339 0-13.256 10.746-24.002 24.002-24.002s24.002 10.746 24.002 24.002c0 0.119-0.001 0.238-0.003 0.357v-0.018 247.562h247.5c0.101-0.002 0.22-0.002 0.339-0.002 13.256 0 24.002 10.746 24.002 24.002s-10.746 24.002-24.002 24.002c-0.119 0-0.238-0.001-0.357-0.003h-247.482v247.5c0.002 0.112 0.003 0.243 0.003 0.376 0 13.256-10.746 24.002-24.002 24.002-0.132 0-0.264-0.001-0.395-0.003h0.020z" />
<glyph unicode="&#xe049;" glyph-name="bas-049" d="M240.5 468.125c-0.101 0.002-0.22 0.002-0.339 0.002-13.256 0-24.002-10.746-24.002-24.002s10.746-24.002 24.002-24.002c0.119 0 0.238 0.001 0.357 0.003h542.982c0.101-0.002 0.22-0.002 0.339-0.002 13.256 0 24.002 10.746 24.002 24.002s-10.746 24.002-24.002 24.002c-0.119 0-0.238-0.001-0.357-0.003h-271.482z" />
<glyph unicode="&#xe050;" glyph-name="bas-050" d="M710.4 601.6c-12.8 0-25.6-9.6-25.6-25.6v-92.8h-342.4v92.8c0 12.8-9.6 25.6-25.6 25.6s-22.4-12.8-22.4-25.6v-236.8c0-12.8 9.6-25.6 25.6-25.6s25.6 9.6 25.6 25.6v92.8h345.6v-92.8c0-12.8 9.6-25.6 25.6-25.6s25.6 9.6 25.6 25.6v236.8c-9.6 12.8-19.2 25.6-32 25.6zM787.2 560c-12.8 0-25.6-9.6-25.6-25.6v-156.8c0-12.8 9.6-25.6 25.6-25.6s25.6 9.6 25.6 25.6v156.8c0 16-9.6 25.6-25.6 25.6zM867.2 521.6c-12.8 0-25.6-9.6-25.6-25.6v-80c0-12.8 9.6-25.6 25.6-25.6s25.6 9.6 25.6 25.6v80c-3.2 16-12.8 25.6-25.6 25.6zM240 560c-12.8 0-25.6-9.6-25.6-25.6v-156.8c0-12.8 9.6-25.6 25.6-25.6s25.6 9.6 25.6 25.6v156.8c-3.2 16-12.8 25.6-25.6 25.6zM160 521.6c-12.8 0-25.6-9.6-25.6-25.6v-80c0-12.8 9.6-25.6 25.6-25.6s25.6 9.6 25.6 25.6v80c-3.2 16-12.8 25.6-25.6 25.6z" />
<glyph unicode="&#xe051;" glyph-name="bas-051" d="M873.6 556.8c-12.8 0-25.6-9.6-25.6-25.6v-67.2h-486.4v22.4c0 38.4-32 70.4-70.4 70.4h-32c-38.4 0-70.4-32-70.4-70.4v-22.4h-16v198.4c0 12.8-9.6 25.6-25.6 25.6s-22.4-12.8-22.4-25.6v-464c0-12.8 9.6-25.6 25.6-25.6s25.6 9.6 25.6 25.6v48h678.4v-48c0-12.8 9.6-25.6 25.6-25.6s25.6 9.6 25.6 25.6v336c-6.4 12.8-19.2 22.4-32 22.4zM240 486.4c0 12.8 9.6 22.4 22.4 22.4h32c12.8 0 22.4-9.6 22.4-22.4v-22.4h-76.8v22.4zM172.8 294.4v121.6h678.4v-124.8h-678.4z" />
<glyph unicode="&#xe052;" glyph-name="bas-052" d="M764.8 796.8c-44.8 35.2-105.6 41.6-140.8 19.2-57.6-35.2-137.6-12.8-153.6-9.6-19.2 9.6-41.6 19.2-60.8 22.4-48 9.6-121.6-6.4-169.6-57.6-38.4-41.6-73.6-121.6-28.8-268.8 22.4-83.2 48-169.6 76.8-252.8l3.2-12.8c22.4-76.8 51.2-150.4 96-163.2 3.2 0 9.6-3.2 16-3.2 9.6 0 22.4 3.2 35.2 12.8s19.2 22.4 22.4 32c12.8 32 16 64 19.2 99.2 3.2 19.2 3.2 35.2 6.4 51.2 3.2 19.2 12.8 41.6 25.6 48 16-6.4 22.4-28.8 25.6-48 3.2-16 6.4-35.2 6.4-51.2 3.2-32 6.4-67.2 19.2-99.2 3.2-9.6 9.6-22.4 22.4-32 19.2-16 38.4-16 51.2-9.6 44.8 12.8 73.6 86.4 96 163.2l3.2 12.8c28.8 86.4 54.4 172.8 76.8 252.8 60.8 188.8-12.8 268.8-48 294.4zM771.2 512c-22.4-80-48-166.4-76.8-252.8 0-3.2-3.2-6.4-3.2-12.8-32-108.8-54.4-128-64-131.2 0 0-3.2 0-9.6 3.2-3.2 3.2-3.2 6.4-6.4 12.8-9.6 25.6-12.8 54.4-16 83.2-3.2 19.2-3.2 38.4-6.4 57.6-12.8 64-41.6 83.2-67.2 86.4-3.2 0-3.2 0-6.4 0h-3.2c-3.2 0-3.2 0-6.4 0-22.4-6.4-54.4-25.6-67.2-86.4-3.2-19.2-6.4-38.4-6.4-57.6-3.2-32-6.4-60.8-16-83.2-3.2-6.4-3.2-9.6-6.4-12.8-6.4-3.2-6.4-3.2-9.6-3.2-9.6 3.2-32 25.6-64 131.2-3.2 6.4-3.2 9.6-3.2 12.8-28.8 86.4-54.4 172.8-76.8 252.8-28.8 99.2-22.4 179.2 19.2 224 32 35.2 76.8 44.8 105.6 44.8 6.4 0 12.8 0 16 0 16-3.2 32-9.6 44.8-16 0 0 3.2-3.2 3.2-3.2 41.6-25.6 76.8-60.8 76.8-60.8 9.6-9.6 25.6-9.6 35.2 0s9.6 25.6 0 35.2c0 0-6.4 6.4-12.8 12.8 32 0 67.2 6.4 99.2 25.6 22.4 9.6 60.8 9.6 92.8-16 54.4-41.6 67.2-131.2 35.2-246.4zM704 592h-48v48c0 12.8-9.6 25.6-25.6 25.6s-22.4-12.8-22.4-25.6v-48h-48c-12.8 0-25.6-9.6-25.6-25.6s9.6-25.6 25.6-25.6h48v-48c0-12.8 9.6-25.6 25.6-25.6s25.6 9.6 25.6 25.6v51.2h44.8c12.8 0 25.6 9.6 25.6 25.6s-12.8 22.4-25.6 22.4z" />
<glyph unicode="&#xe053;" glyph-name="bas-053" d="M790.4 819.2c-3.2 9.6-9.6 12.8-19.2 12.8h-201.6c-9.6 0-16-3.2-19.2-12.8l-153.6-249.6-220.8-355.2c-3.2-6.4-3.2-16 0-22.4s12.8-12.8 19.2-12.8c0 0 6.4 0 12.8 0 48 0 220.8 12.8 313.6 166.4 3.2 9.6 3.2 19.2 0 25.6 0 0-38.4 54.4-25.6 112l57.6-35.2c3.2-3.2 9.6-3.2 12.8-3.2s3.2 0 6.4 0c6.4 0 12.8 6.4 16 9.6l208 342.4c0 6.4 0 16-6.4 22.4zM470.4 355.2c-64-96-172.8-121.6-230.4-128l182.4 297.6 6.4-3.2 19.2-12.8c-19.2-67.2 9.6-128 22.4-153.6zM553.6 499.2l-86.4 54.4-19.2 12.8 134.4 217.6h144l-172.8-284.8zM243.2 112c-38.4 3.2-60.8 9.6-60.8 9.6-12.8 3.2-25.6-6.4-28.8-19.2s6.4-25.6 19.2-28.8c0 0 25.6-6.4 67.2-9.6 0 0 3.2 0 3.2 0 12.8 0 22.4 9.6 22.4 22.4s-9.6 22.4-22.4 25.6zM496 124.8c-44.8-9.6-92.8-16-144-16-12.8 0-22.4-12.8-22.4-25.6s9.6-22.4 22.4-22.4c0 0 0 0 0 0 54.4 0 105.6 6.4 153.6 19.2 12.8 3.2 22.4 16 19.2 28.8-3.2 9.6-16 19.2-28.8 16zM716.8 236.8c-32-32-73.6-57.6-118.4-80-12.8-6.4-16-19.2-12.8-32 3.2-9.6 12.8-12.8 22.4-12.8 3.2 0 6.4 0 9.6 3.2 51.2 22.4 92.8 51.2 131.2 86.4 9.6 9.6 9.6 25.6 0 35.2s-22.4 9.6-32 0zM838.4 387.2c-12.8 6.4-25.6 0-32-12.8-6.4-19.2-16-38.4-25.6-54.4-6.4-12.8-3.2-25.6 9.6-32 3.2-3.2 9.6-3.2 12.8-3.2 9.6 0 16 3.2 19.2 12.8 9.6 19.2 22.4 38.4 28.8 60.8 6.4 9.6 0 22.4-12.8 28.8z" />
<glyph unicode="&#xe054;" glyph-name="bas-054" d="M764.8 630.4v-89.6c0-12.8 9.6-25.6 25.6-25.6s25.6 9.6 25.6 25.6v89.6c0 48-38.4 86.4-86.4 86.4s-86.4-38.4-86.4-86.4v-374.4c0-51.2-41.6-96-96-96h-6.4c-51.2 0-96 41.6-96 96v99.2h28.8c44.8 0 80 35.2 80 80v182.4c0 25.6-12.8 51.2-32 64l-51.2 35.2c-6.4 6.4-16 9.6-25.6 12.8v51.2h22.4c12.8 0 25.6 9.6 25.6 25.6s-9.6 25.6-25.6 25.6h-140.8c-70.4-3.2-131.2-60.8-131.2-137.6v-608c0-12.8 9.6-25.6 25.6-25.6s25.6 9.6 25.6 25.6v608c0 48 38.4 86.4 86.4 86.4h70.4v-51.2c-9.6-3.2-16-6.4-25.6-12.8l-51.2-35.2c-25.6-12.8-38.4-38.4-38.4-64v-182.4c0-44.8 35.2-80 80-80h28.8v-99.2c0-80 64-144 144-144h6.4c80 0 144 64 144 144v374.4c0 19.2 16 38.4 38.4 38.4s35.2-19.2 35.2-38.4zM336 435.2v182.4c0 9.6 6.4 19.2 12.8 25.6 0 0 0 0 0 0l51.2 35.2c6.4 3.2 12.8 6.4 22.4 6.4 6.4 0 16-3.2 22.4-6.4l51.2-35.2c9.6-6.4 12.8-16 12.8-25.6v-182.4c0-16-12.8-32-32-32h-105.6c-19.2 0-35.2 12.8-35.2 32zM854.4 377.6c-3.2 9.6-6.4 16-9.6 22.4l-38.4 76.8c-6.4 16-35.2 16-41.6 0l-38.4-76.8c-6.4-9.6-6.4-19.2-9.6-32-3.2-19.2 3.2-38.4 16-51.2 12.8-16 32-22.4 51.2-22.4 22.4 0 41.6 9.6 54.4 25.6 16 16 19.2 35.2 16 57.6zM803.2 348.8c-6.4-9.6-22.4-9.6-32 0-3.2 3.2-6.4 6.4-3.2 12.8 0 6.4 3.2 9.6 3.2 16l16 32 16-32c3.2-3.2 3.2-6.4 3.2-12.8 3.2-6.4 0-12.8-3.2-16zM454.4 540.8h-9.6v9.6c0 12.8-9.6 25.6-25.6 25.6s-25.6-9.6-25.6-25.6v-9.6h-9.6c-12.8 0-25.6-9.6-25.6-25.6s9.6-25.6 25.6-25.6h9.6v-9.6c0-12.8 9.6-25.6 25.6-25.6s25.6 9.6 25.6 25.6v9.6h9.6c12.8 0 25.6 9.6 25.6 25.6s-12.8 25.6-25.6 25.6z" />
<glyph unicode="&#xe055;" glyph-name="bas-055" d="M438.4 451.2c0-41.6 32-73.6 73.6-73.6s73.6 32 73.6 73.6c0 41.6-32 73.6-73.6 73.6s-73.6-32-73.6-73.6zM512 476.8c12.8 0 25.6-12.8 25.6-25.6s-12.8-25.6-25.6-25.6c-12.8 0-25.6 12.8-25.6 25.6s12.8 25.6 25.6 25.6zM614.4 352c-3.2 6.4-9.6 9.6-16 9.6s-12.8 0-19.2-3.2c-41.6-28.8-96-28.8-137.6 0-9.6 6.4-25.6 3.2-32-6.4l-118.4-176c-6.4-9.6-3.2-25.6 6.4-32 64-41.6 137.6-64 214.4-64s150.4 22.4 214.4 67.2c9.6 6.4 12.8 22.4 6.4 32l-118.4 172.8zM345.6 169.6l92.8 137.6c48-22.4 102.4-22.4 150.4 0l92.8-137.6c-102.4-57.6-233.6-57.6-336 0zM390.4 441.6c-3.2 25.6 3.2 48 16 70.4s32 38.4 54.4 48c6.4 3.2 9.6 6.4 12.8 12.8s3.2 12.8 0 19.2l-92.8 192c-6.4 12.8-19.2 16-32 9.6-70.4-35.2-128-86.4-166.4-153.6s-54.4-140.8-48-217.6c0-12.8 12.8-22.4 22.4-22.4 0 0 0 0 3.2 0l211.2 16c12.8 0 22.4 12.8 19.2 25.6zM342.4 460.8l-166.4-12.8c0 57.6 16 115.2 44.8 166.4s70.4 92.8 121.6 124.8l73.6-147.2c-22.4-16-41.6-35.2-54.4-57.6-9.6-22.4-16-48-19.2-73.6zM841.6 640c-38.4 67.2-96 121.6-166.4 153.6-12.8 6.4-25.6 0-32-9.6l-92.8-192c-3.2-6.4-3.2-12.8 0-19.2s6.4-9.6 12.8-12.8c22.4-9.6 41.6-28.8 54.4-48 12.8-22.4 16-44.8 16-70.4 0-12.8 9.6-25.6 22.4-25.6l211.2-16c0 0 0 0 3.2 0 12.8 0 22.4 9.6 22.4 22.4 3.2 76.8-12.8 150.4-51.2 217.6zM678.4 460.8c-3.2 25.6-9.6 51.2-22.4 73.6s-32 41.6-54.4 57.6l73.6 147.2c51.2-28.8 92.8-70.4 121.6-124.8 28.8-51.2 44.8-108.8 44.8-166.4l-163.2 12.8z" />
<glyph unicode="&#xe056;" glyph-name="bas-056" d="M873.6 726.4h-720c-16 0-25.6-9.6-25.6-22.4v-518.4c0-16 9.6-25.6 25.6-25.6h720c12.8 0 25.6 9.6 25.6 25.6v518.4c-3.2 12.8-12.8 22.4-25.6 22.4zM566.4 560c16 0 28.8-12.8 28.8-28.8s-12.8-28.8-28.8-28.8c-16 0-25.6 12.8-28.8 25.6 0 12.8-12.8 22.4-22.4 22.4s-22.4-9.6-22.4-22.4c0-16-12.8-25.6-28.8-25.6s-28.8 12.8-28.8 28.8c0 16 12.8 28.8 25.6 28.8s22.4 12.8 22.4 22.4v96h60.8v-96c-3.2-12.8 9.6-22.4 22.4-22.4zM460.8 345.6c-16 0-28.8 12.8-28.8 28.8s12.8 28.8 28.8 28.8c16 0 25.6-12.8 28.8-25.6 0-12.8 12.8-22.4 22.4-22.4s22.4 9.6 22.4 22.4c0 16 12.8 25.6 28.8 25.6s28.8-12.8 28.8-28.8c0-16-12.8-28.8-25.6-28.8s-22.4-12.8-22.4-22.4v-112h-60.8v108.8c0 16-9.6 25.6-22.4 25.6zM848 208h-256v96c28.8 12.8 48 38.4 48 70.4 0 41.6-35.2 76.8-76.8 76.8-19.2 0-38.4-6.4-51.2-19.2-12.8 12.8-32 19.2-51.2 19.2-41.6 0-76.8-35.2-76.8-76.8 0-35.2 22.4-64 51.2-73.6v-92.8h-259.2v470.4h256v-76.8c-28.8-12.8-48-38.4-48-70.4 0-41.6 35.2-76.8 76.8-76.8 19.2 0 38.4 6.4 51.2 19.2 12.8-12.8 32-19.2 51.2-19.2 41.6 0 76.8 35.2 76.8 76.8 0 35.2-22.4 64-51.2 73.6v73.6h259.2v-470.4zM332.8 640h-99.2c-12.8 0-25.6-9.6-25.6-25.6s9.6-25.6 25.6-25.6h99.2c12.8 0 25.6 9.6 25.6 25.6s-12.8 25.6-25.6 25.6zM278.4 566.4h-44.8c-12.8 0-25.6-9.6-25.6-25.6s9.6-25.6 25.6-25.6h44.8c12.8 0 25.6 9.6 25.6 25.6s-12.8 25.6-25.6 25.6zM723.2 240h67.2c12.8 0 25.6 9.6 25.6 25.6s-9.6 22.4-22.4 22.4h-67.2c-12.8 0-25.6-9.6-25.6-25.6s9.6-22.4 22.4-22.4z" />
<glyph unicode="&#xe057;" glyph-name="bas-057" d="M864 563.2c-48 92.8-144 150.4-262.4 156.8-64 3.2-73.6 73.6-73.6 76.8-3.2 12.8-12.8 22.4-25.6 19.2-12.8 0-22.4-12.8-22.4-25.6 6.4-38.4 35.2-115.2 118.4-118.4 99.2-6.4 179.2-51.2 220.8-131.2 32-60.8 35.2-134.4 9.6-204.8-28.8-80-89.6-144-163.2-176-51.2-19.2-105.6-22.4-160-9.6-35.2 9.6-67.2 28.8-99.2 48-22.4 12.8-41.6 25.6-64 35.2-51.2 22.4-83.2 12.8-99.2 0-28.8-22.4-41.6-64-32-115.2 3.2-12.8 12.8-22.4 28.8-19.2 12.8 3.2 22.4 16 19.2 28.8-6.4 32 0 60.8 12.8 70.4s38.4 3.2 51.2-3.2c19.2-9.6 41.6-22.4 60.8-32 35.2-19.2 70.4-41.6 112-51.2 25.6-6.4 54.4-9.6 80-9.6 38.4 0 76.8 6.4 112 22.4 86.4 35.2 156.8 112 188.8 204.8 28.8 73.6 25.6 160-12.8 233.6zM224 265.6c22.4 9.6 48 16 73.6 19.2s54.4 6.4 83.2 19.2c67.2 28.8 76.8 86.4 80 140.8 0 19.2 6.4 44.8 16 67.2 25.6 44.8 73.6 73.6 124.8 76.8 12.8 0 22.4 12.8 22.4 25.6s-12.8 22.4-25.6 22.4c-22.4 0-48-6.4-70.4-16-3.2 22.4-19.2 48-51.2 80-41.6 35.2-32 89.6-32 92.8 3.2 6.4-6.4 19.2-19.2 22.4s-25.6-6.4-28.8-19.2c0-3.2-12.8-80 48-134.4 38.4-35.2 41.6-54.4 38.4-73.6-19.2-16-35.2-35.2-48-57.6-16-28.8-22.4-64-22.4-86.4-3.2-54.4-12.8-83.2-51.2-99.2-22.4-9.6-44.8-12.8-70.4-16-28.8-3.2-57.6-9.6-89.6-22.4-96-48-73.6-163.2-64-201.6 3.2-9.6 12.8-19.2 22.4-19.2 0 0 3.2 0 3.2 0 12.8 3.2 22.4 16 19.2 28.8-16 80-3.2 128 41.6 150.4zM499.2 233.6c-12.8 3.2-25.6-6.4-28.8-19.2s6.4-25.6 19.2-28.8c19.2-3.2 38.4-6.4 57.6-6.4 48 0 96 12.8 134.4 35.2 64 35.2 108.8 99.2 128 176 3.2 12.8-3.2 25.6-16 28.8s-25.6-3.2-28.8-16c-16-67.2-54.4-118.4-105.6-147.2-48-25.6-105.6-35.2-160-22.4z" />
<glyph unicode="&#xe058;" glyph-name="bas-058" d="M310.4 243.2c-9.6-9.6-9.6-25.6 0-38.4 9.6-9.6 25.6-9.6 38.4 0s9.6 25.6 0 38.4-25.6 9.6-38.4 0zM416 352c0-14.138-11.462-25.6-25.6-25.6s-25.6 11.462-25.6 25.6c0 14.138 11.462 25.6 25.6 25.6s25.6-11.462 25.6-25.6zM329.6 304c0-7.069-5.731-12.8-12.8-12.8s-12.8 5.731-12.8 12.8c0 7.069 5.731 12.8 12.8 12.8s12.8-5.731 12.8-12.8zM265.6 198.4c0-7.069-5.731-12.8-12.8-12.8s-12.8 5.731-12.8 12.8c0 7.069 5.731 12.8 12.8 12.8s12.8-5.731 12.8-12.8zM886.4 598.4l-224 224c-6.4 9.6-22.4 9.6-32 0s-9.6-25.6 0-35.2l9.6-9.6-473.6-473.6c-25.6-28.8-38.4-64-38.4-99.2 0-38.4 16-73.6 41.6-99.2l3.2-3.2c25.6-25.6 60.8-41.6 99.2-41.6s73.6 16 99.2 41.6l470.4 473.6 12.8-12.8c3.2-3.2 9.6-6.4 16-6.4s12.8 3.2 16 6.4c9.6 9.6 9.6 25.6 0 35.2zM332.8 137.6c-35.2-35.2-96-35.2-128 0l-3.2 3.2c-16 16-25.6 41.6-25.6 64 0 25.6 9.6 48 25.6 64l169.6 169.6c0 0 0 0 3.2 0h262.4l-304-300.8zM681.6 486.4c0 0 0 0 0 0h-262.4l256 256 131.2-131.2-124.8-124.8z" />
<glyph unicode="&#xe059;" glyph-name="bas-059" d="M694.4 217.6h-64c-12.8 0-25.6-9.6-25.6-25.6s9.6-25.6 25.6-25.6h64c12.8 0 25.6 9.6 25.6 25.6s-12.8 25.6-25.6 25.6zM848 134.4c0 3.2 0 3.2 0 0v32c0 163.2-198.4 246.4-220.8 256 0 0-3.2 0-3.2 0s-3.2 0-3.2 0c0 0-3.2 0-3.2 0s-3.2 0-3.2 0c0 0-3.2 0-3.2-3.2 0 0-3.2 0-3.2-3.2 0 0-3.2-3.2-3.2-3.2s0 0-3.2-3.2c-12.8-22.4-60.8-64-89.6-86.4-35.2 25.6-76.8 64-83.2 83.2 0 0 0 3.2-3.2 3.2 0 0-3.2 3.2-3.2 3.2s-3.2 3.2-3.2 3.2c0 0-3.2 3.2-3.2 3.2s-3.2 0-3.2 0c0 0-3.2 0-3.2 0s-3.2 0-3.2 0c0 0-3.2 0-3.2 0-76.8-25.6-224-112-224-256v-28.8c0 0 0-3.2 0-3.2 0-3.2 0-3.2 0-6.4 0 0 0-3.2 3.2-3.2 0 0 0-3.2 3.2-3.2 0 0 3.2-3.2 3.2-3.2s0 0 3.2-3.2c-3.2 3.2 86.4-48 320-48s323.2 51.2 326.4 54.4c0 0 0 0 3.2 3.2 0 0 3.2 3.2 3.2 3.2s3.2 3.2 3.2 3.2c0 0 0 3.2 3.2 3.2-3.2 0-3.2 3.2-3.2 3.2zM224 153.6v12.8c0 108.8 112 179.2 172.8 204.8 28.8-38.4 89.6-86.4 102.4-96 3.2-3.2 9.6-3.2 12.8-3.2 6.4 0 9.6 3.2 16 6.4 6.4 6.4 67.2 57.6 99.2 92.8 48-22.4 176-89.6 176-204.8v-12.8c-28.8-12.8-118.4-41.6-291.2-41.6s-259.2 28.8-288 41.6zM512 416c89.6 0 163.2 73.6 163.2 163.2v89.6c0 92.8-73.6 163.2-163.2 163.2s-163.2-73.6-163.2-163.2v-89.6c0-89.6 73.6-163.2 163.2-163.2zM512 464c-54.4 0-96 35.2-112 83.2 28.8-6.4 70.4-12.8 118.4-12.8 44.8 0 80 6.4 102.4 9.6-12.8-44.8-57.6-80-108.8-80zM512 784c64 0 115.2-51.2 115.2-115.2v-73.6c-19.2-6.4-57.6-12.8-108.8-12.8-54.4 0-99.2 9.6-121.6 12.8v73.6c0 64 51.2 115.2 115.2 115.2z" />
<glyph unicode="&#xe060;" glyph-name="bas-060" d="M816 566.4c-38.4 118.4-137.6 201.6-256 220.8 0 0 0 0 0 0s-3.2 0-3.2 0c-16 3.2-28.8 3.2-44.8 3.2-137.6 0-259.2-92.8-304-224-44.8-12.8-80-54.4-80-105.6s35.2-96 80-108.8c44.8-134.4 166.4-224 304-224s259.2 92.8 304 224c48 12.8 80 57.6 80 108.8 3.2 51.2-32 92.8-80 105.6zM796.8 396.8c-9.6 0-19.2-6.4-19.2-16-35.2-121.6-140.8-204.8-262.4-204.8s-227.2 83.2-262.4 204.8c-3.2 9.6-9.6 16-19.2 16-28.8 3.2-54.4 32-54.4 64s22.4 57.6 54.4 64c9.6 0 19.2 6.4 19.2 16 25.6 89.6 92.8 160 176 188.8-9.6-12.8-16-28.8-22.4-44.8-19.2-64 16-131.2 80-150.4 9.6-3.2 19.2-3.2 28.8-3.2 19.2 0 35.2 6.4 51.2 12.8 25.6 16 41.6 38.4 48 67.2s-3.2 60.8-22.4 80c-19.2 16-44.8 22.4-70.4 16-22.4-6.4-41.6-22.4-48-44.8-3.2-12.8 3.2-25.6 16-28.8s25.6 3.2 28.8 16c3.2 6.4 9.6 9.6 12.8 12.8 9.6 3.2 19.2 0 25.6-6.4 9.6-6.4 12.8-22.4 9.6-35.2s-12.8-25.6-25.6-35.2c-12.8-6.4-28.8-9.6-41.6-6.4-38.4 12.8-60.8 51.2-48 89.6 12.8 44.8 54.4 73.6 99.2 70.4 105.6-16 195.2-92.8 224-201.6 3.2-9.6 9.6-16 19.2-16 32-3.2 54.4-32 54.4-64 3.2-28.8-22.4-57.6-51.2-60.8zM515.2 412.8c-54.4 0-99.2-44.8-99.2-99.2s44.8-99.2 99.2-99.2c54.4 0 99.2 44.8 99.2 99.2s-44.8 99.2-99.2 99.2zM515.2 262.4c-28.8 0-51.2 22.4-51.2 51.2s22.4 51.2 51.2 51.2c28.8 0 51.2-22.4 51.2-51.2s-22.4-51.2-51.2-51.2z" />
</font>
</defs>
</svg>
