<svg width="540" height="190" xmlns="http://www.w3.org/2000/svg">
    <metadata id="metadata8">image/svg+xml</metadata>
    <title>Cuf Logo</title>
    <g id="g10" transform="matrix(1.3333333,0,0,-1.3333333,0,1122.52) ">
        <path fill="rgb(255,255,255)" fill-rule="nonzero" d="m30.649101,772.119507c5.517,-0.729 11.13,-1.705 16.561,-2.645c6.669,-1.185 13.57,-2.391 20.266,-3.1c15.543,-1.671 30.173,1.506 44.337,4.577c5.976,1.286 12.091,2.62 18.316,3.591l0,8.177c-5.654,0 -11.324,-0.444 -16.83,-0.951c-4.549,-0.413 -9.312,-1.122 -13.939,-1.817c-6.513,-0.993 -13.255,-1.998 -19.747,-2.238c-15.764,-0.577 -30.744,1.012 -44.75,2.671l-4.46,0.532c-7.467,0.93 -12.887,1.588 -19.69,1.588l-0.793,0c-1.404,0 -3.11,0.011 -4.882,-0.096l0,-10.007c8.382,0.387 17.061,0.76 25.611,-0.282" id="path22"/>
        <path fill="rgb(255,255,255)" fill-rule="nonzero" d="m10.7136,785.830902c7.027,0 12.794,-0.721 20.109,-1.621l4.434,-0.53c13.882,-1.635 28.727,-3.214 44.214,-2.646c6.324,0.225 12.974,1.236 19.384,2.197c4.69,0.704 9.502,1.429 14.134,1.853c5.586,0.511 11.379,0.96 17.141,0.94l0,7.141c-4.209,-0.107 -8.352,-0.185 -11.555,-0.185c-6.701,0 -13.427,-0.388 -19.955,-0.759c-6.568,-0.363 -13.377,-0.752 -20.14,-0.752c-15.247,0 -30.934,1.823 -42.871,3.402l-0.087,0.005c-8.336,1.052 -16.973,2.126 -25.677,2.386l-0.051,0l-0.077,0c-1.235,0.076 -2.897,0.178 -4.674,0.178l0,-11.717c1.777,0.112 3.474,0.108 4.883,0.108l0.788,0z" id="path26"/>
        <path fill="rgb(255,255,255)" fill-rule="nonzero" d="m22.425499,757.424713c0,0 2.544,-0.214 2.574,-0.214c7.197,-0.724 14.256,-2.385 21.1,-3.978c5.594,-1.309 11.37,-2.646 17.21,-3.479c17.494,-2.713 35.116,-1.176 50.93,4.453c2.738,0.95 5.415,2.09 7.983,3.187c2.581,1.115 5.18,2.228 7.907,3.153l0,10.623c-5.976,-0.939 -11.853,-2.217 -17.626,-3.453c-14.4,-3.13 -29.299,-6.363 -45.369,-4.657c-6.814,0.739 -13.766,1.956 -20.498,3.136c-5.373,0.934 -10.966,1.92 -16.391,2.62c-8.341,1.023 -16.908,0.644 -25.208,0.26l0,-11.038c6.018,0.368 11.8,-0.132 17.388,-0.613" id="path30"/>
        <path fill="rgb(255,255,255)" fill-rule="nonzero" d="m9.982101,800.576508c8.857,-0.265 17.54,-1.343 25.948,-2.401l0.098,-0.016c11.854,-1.572 27.398,-3.365 42.451,-3.365c6.687,0 13.434,0.377 19.957,0.74c6.573,0.374 13.357,0.756 20.139,0.756c3.203,0 7.345,0.077 11.554,0.204l0,33.274l-125.086,0l0,-29.009c1.808,0 3.513,-0.101 4.877,-0.183l0.062,0z" id="path34"/>
        <path fill="rgb(255,255,255)" fill-rule="nonzero" d="m129.578796,738.235687c-1.436,-0.394 -2.932,-0.807 -4.49,-1.227c-17.546,-4.637 -35.913,-4.613 -48.193,-3.765c-10.154,0.543 -20.489,1.953 -30.459,3.332c-4.402,0.581 -8.944,1.204 -13.367,1.736c-9.664,1.164 -18.316,1.41 -28.027,0.802l0,-10.472l0,-23.96l125.087,0.009l0,33.712c-0.194,-0.056 -0.364,-0.106 -0.551,-0.167" id="path38"/>
        <path fill="rgb(255,255,255)" fill-rule="nonzero" d="m33.473297,741.612701c4.454,-0.544 9.001,-1.167 13.408,-1.769c9.909,-1.337 20.171,-2.728 30.219,-3.289c12.06,-0.827 30.024,-0.846 47.16,3.676c1.528,0.405 2.999,0.803 4.419,1.207c0.486,0.144 0.966,0.278 1.45,0.414l0,15.187c-2.211,-0.809 -4.382,-1.748 -6.604,-2.693c-2.625,-1.113 -5.353,-2.289 -8.198,-3.274c-16.31,-5.797 -34.478,-7.397 -52.52,-4.604c-5.945,0.854 -11.804,2.208 -17.473,3.531c-6.722,1.578 -13.674,3.192 -20.688,3.918c-0.046,0 -2.497,0.199 -2.497,0.199c-5.542,0.48 -11.279,0.972 -17.112,0.587l0,-12.259c9.824,0.592 18.624,0.342 28.436,-0.831" id="path42"/>
        <path fill="rgb(255,255,255)" fill-rule="nonzero" d="m400.241913,816.118011l-9.266,0c-9.666,0 -14.471,-6.432 -14.471,-17.601l0,-16.12l20.876,0l0,-19.17l-20.876,0l0,-57.789l-22.564,0l0,92.526c0,24.987 10.027,39.335 33.652,39.335l12.649,0l0,-21.181z" id="path46"/>
        <path fill="rgb(255,255,255)" fill-rule="nonzero" d="m237.520203,784.304108c-8.719,9.665 -21.408,13.825 -32.981,13.825c-27.489,0 -49.464,-19.135 -49.464,-47.752c0,-28.618 21.975,-47.753 49.464,-47.753c7.974,0 23.508,3.388 32.796,12.694l-15.187,16.288c-4.151,-5.491 -10.592,-8.533 -17.609,-8.533c-16.665,0 -26.716,13.074 -26.716,27.304c0,14.21 10.051,27.293 26.716,27.293c6.071,0 11.941,-3.62 17.251,-9.105l15.73,15.739z" id="path50"/>
        <path fill="rgb(255,255,255)" fill-rule="nonzero" d="m310.525085,796.204498l0,-45.833c0,-9.578 -0.639,-25.356 -14.647,-26.639c-1.275,-0.228 -2.701,-0.212 -4.136,-0.212c-1.856,0 -3.624,0.221 -5.222,0.582c-12.364,2.36 -13.022,17.111 -13.022,26.269l0,45.833l-22.625,0l0,-57.134c0,-17.393 13.115,-34.266 34.893,-36.213c0,0 6.754,-0.516 12.232,-0.012l0.248,0.012c21.789,1.947 34.915,18.82 34.915,36.213l0,57.134l-22.636,0z" id="path54"/>
    </g>
</svg>