<?xml version="1.0" encoding="UTF-8"?>
<svg width="56px" height="56px" viewBox="0 0 56 56" version="1.1" xmlns="http://www.w3.org/2000/svg" xmlns:xlink="http://www.w3.org/1999/xlink">
    <!-- Generator: Sketch 57.1 (83088) - https://sketch.com -->
    <desc>Created with Sketch.</desc>
    <g id="Logos/My-Cuf" stroke="none" stroke-width="1" fill="none" fill-rule="evenodd">
        <path d="M16.9176094,26.2783207 C18.3983671,26.6591528 19.7012695,27.3977703 20.7600338,28.3787996 L21,28.6094416 L18.1274807,31.6032236 C17.1738283,30.3983854 15.7512121,29.6971696 14.235173,29.8590998 C11.7243201,30.1265739 9.91598803,32.6485412 10.1957939,35.4914775 C10.4746748,38.3344137 12.7367086,40.4221573 15.246174,40.1546832 C16.3533728,40.036834 17.3199666,39.4769152 18.0354055,38.6477243 L18.1848293,38.465982 L20.9458888,41.6004891 C18.8452636,43.5990747 15.8113356,44.4998117 12.7857324,43.7219682 C8.03227023,42.5002622 5.10563968,37.6037998 6.2466001,32.7873386 C7.38709804,27.9708774 12.1650722,25.0566148 16.9176094,26.2783207 Z M28.2420882,26.4594083 L28.2420882,36.5725444 C28.2522353,36.9214201 28.2919412,37.2702959 28.3704706,37.6092308 C28.5667941,38.4556213 29.0335588,39.1893491 29.7412059,39.6319527 C30.3094412,39.9860355 31.0598824,40.2118343 31.7181176,40.123787 C32.3935588,40.0328994 33.0698824,39.7649704 33.5860588,39.2778698 C34.2570882,38.6453423 34.5530411,37.7217945 34.6159162,36.7880717 L34.6263529,36.5725444 L34.6263529,26.4594083 L38.6357647,26.4594083 L38.6357647,35.6523077 C38.6357647,36.0338462 38.6432647,36.4163314 38.6397353,36.7983432 C38.6348824,37.2499408 38.6137059,37.6991716 38.5453235,38.1446154 C38.4142941,39.0014201 38.1548824,39.8392899 37.7551765,40.5957396 C37.2266471,41.5931361 36.4554706,42.4149112 35.5276765,42.9848521 C35.4217941,43.0501775 35.3150294,43.1140828 35.2038529,43.1713609 C34.4282647,43.5652071 33.5842941,43.7701775 32.7372353,43.8918343 C31.3320882,44.0953846 29.9132647,43.9770414 28.5548824,43.5334911 C28.1322353,43.3947929 27.7241471,43.2201183 27.3407647,42.9848521 C26.7434118,42.6184615 26.2042941,42.1465089 25.7573824,41.5850888 C25.1715,40.8461538 24.7550294,39.963787 24.5075294,39.0312426 C24.2952132,38.2310059 24.2440161,37.4430917 24.2345342,36.6237371 L24.2326765,36.2705325 L24.2326765,26.4594083 L28.2420882,26.4594083 Z M50.9078737,16.3653517 L50.9078737,20.0280414 L48.8535579,20.0280414 C48.4130316,20.0280414 47.0187759,20.369199 46.9197481,22.2700146 L46.9141895,22.4876966 L46.9141895,26.7258345 L50.4282947,26.7258345 L50.4282947,30.3619724 L46.9141895,30.3619724 L46.9141895,43.8874207 L43.1028211,43.8874207 L43.1025706,22.4819094 C43.0941512,22.2748285 42.9067119,16.5782198 47.7569874,16.3711388 L48.0316632,16.3653517 L50.9078737,16.3653517 Z M17.9924812,15 L18.6871345,17.28835 C18.8496241,17.8363677 18.96533,18.3848153 19.1044277,18.9805428 L19.1503759,18.9805428 C19.2664996,18.4084553 19.3822055,17.8604375 19.5213033,17.28835 L20.1002506,15 L22,15 L20.0538847,20.8635746 C19.4515455,22.4723827 19.0413534,23.1098025 17.251462,22.9847255 C16.9005848,22.9602259 16.4014202,22.7307032 16.1466165,22.6589236 L16.663325,21.0217476 C16.7677527,21.0453875 17.940685,21.6067296 18.2101086,20.9224596 L18.200919,20.7445151 L16,15 L17.9924812,15 Z M8.864385,12.4223368 L10.174335,15.8579684 C10.334535,16.3226526 10.468185,16.8394421 10.628835,17.3301789 L10.682385,17.3301789 C10.842585,16.8394421 10.976235,16.3226526 11.137335,15.8579684 L12.393735,12.4223368 L14.853435,12.4223368 L14.853435,20.8179158 L12.768135,20.8179158 L12.768135,18.3377053 C12.768135,17.4850737 12.955335,16.1810211 13.062435,15.3411789 L13.008885,15.3411789 L12.286635,17.3562316 L11.216985,20.1329684 L9.987135,20.1329684 L8.917485,17.3562316 L8.222235,15.3411789 L8.169135,15.3411789 C8.275785,16.1810211 8.462985,17.4850737 8.462985,18.3377053 L8.462985,20.8179158 L6.404235,20.8179158 L6.404235,12.4223368 L8.864385,12.4223368 Z" id="Combined-Shape" fill="#FFFFFF" fill-rule="nonzero"></path>
    </g>
</svg>
